<svg width="1045" height="717" viewBox="0 0 1045 717" fill="none" xmlns="http://www.w3.org/2000/svg">
<path d="M72.0805 1158.55C86.5213 1149.59 100.884 1140.5 115.388 1131.7C158.656 1105.46 191.622 1078.25 212.128 1048.99C229.153 1024.69 247.142 1011.19 284.142 993.945C310.072 981.888 334.027 973.948 358.131 965.69C371.993 960.939 385.888 956.19 399.558 951.769C461.017 931.895 516.922 898.375 563.123 852.455C602.285 813.538 644.142 787.531 694.302 772.738C704.278 769.657 714.737 765.784 725.472 761.198C763.153 745.52 789.004 725.869 804.711 701.152C810.048 692.734 814.151 684.686 819.791 676.183C832.765 656.613 844.035 648.242 873.663 635.727C918.561 616.746 962.227 594.394 1001.64 560.773C1027.21 538.954 1042.77 518.847 1055.4 499.175C1104.14 423.202 1204.06 347.871 1319.91 301.759C1370.74 281.537 1413.42 254.89 1454.76 220.115C1493.36 187.644 1526.05 154.889 1563.76 122.395C1589.08 100.585 1615.55 79.2591 1647.86 60.8952C1654.68 57.0351 1661.48 52.2596 1668.12 51.7384C1666.4 53.4351 1665.08 55.3104 1663.51 56.1939C1609.8 86.5167 1570.34 121.778 1531.66 157.371C1499.2 187.255 1467.42 217.116 1428.67 246.459C1398.88 269.035 1368.15 286.835 1335.62 300.039C1322.05 305.532 1308.36 310.938 1294.49 317.135C1195.62 361.316 1107.09 429.929 1066.53 493.602C1063.37 498.561 1060.19 503.543 1056.51 508.623C1018.62 560.632 965.239 600.376 887.148 634.727C840.693 655.125 839.299 656.305 821.325 685.98C816.797 693.753 811.45 701.793 805.326 710.042C790.407 729.598 767.726 746.411 738.342 760.339C719.679 769.076 701.485 776.119 684.515 781.176C643.148 793.805 607.341 815.275 576.176 847.017C569.817 853.495 562.282 860.072 555.026 866.59C512.023 905.2 464.253 933.261 412.015 952.273C375.722 965.473 341.165 975.555 304.085 990.127C267.006 1004.7 234.252 1024.2 215.155 1053.47C194.084 1085.76 150.682 1116.31 102.983 1144.38C93.7313 1149.82 84.5261 1155.41 75.2897 1160.94L72.0805 1158.55Z" fill="url(#paint0_linear_9_10)"/>
<path d="M89.6606 1172.01C113.84 1156.75 138.152 1141.64 162.189 1126.18C197.632 1103.39 221.407 1080.06 238.17 1056.56C255.62 1032.11 273.201 1018.95 310.674 1002.02C346.691 985.754 380.152 974.697 412.801 964.676C481.593 943.517 542.444 907.043 595.132 855.084C630.731 819.974 669.857 796.824 714.659 783.193C718.916 781.914 723.326 780.365 727.735 778.793C786.83 757.769 811.739 739.597 835.538 700.197C838.793 694.815 841.861 689.47 845.649 683.928C858.901 664.571 868.581 657.367 897.915 644.717C902.521 642.728 907.115 640.798 911.744 638.737C993.453 602.345 1045.64 562.529 1079.06 509.889C1093.29 487.508 1114 463.293 1139.9 438.752C1199.55 381.914 1270.38 339.254 1346.74 309.73C1395.61 290.837 1437.33 264.344 1477.45 230.927C1513.81 200.64 1544.73 170.072 1579.08 139.681C1605.65 116.205 1633.52 93.1466 1667.86 72.7374C1673.12 69.6162 1678.54 65.7055 1683.76 65.7078C1682.68 66.945 1681.73 68.6921 1680.36 69.5073C1629.09 99.8069 1591.77 134.146 1554.2 168.499C1525.11 195.083 1496.64 221.675 1463.17 248.039C1428.68 275.196 1393.16 296.091 1355.08 310.96C1318.5 325.241 1281.64 342.292 1243.94 365.219C1174.99 407.155 1129.47 450.946 1096.09 495.645C1092.63 500.264 1090.43 504.565 1087.45 509.072C1051.65 563.225 997.232 605.034 913.415 642.808C863.845 665.133 863.725 665.223 845.425 696.646C821.335 738.025 786.497 763.391 723.936 785.076C713.722 788.604 703.464 792.097 693.161 795.76C663.225 806.453 634.819 822.854 613.213 844.938C545.979 913.744 469.701 954.588 385.534 978.886C361.732 985.656 336.117 995.238 309.727 1007.25C276.635 1022.42 260.267 1034.65 245.429 1056.24C220.051 1093.07 175.686 1125.39 122.727 1156.31C112.641 1162.21 102.849 1168.33 92.8569 1174.45L89.6606 1172.01Z" fill="url(#paint1_linear_9_10)"/>
<path d="M196.727 1253.97C222.586 1234.08 250.79 1216.61 279.391 1199.64C330.09 1169.53 370.795 1138.42 392.671 1103.86C403.331 1087.05 424.494 1071.98 450.317 1059.3C477.236 1046.09 502.259 1037.25 527.165 1028.72C549.076 1021.21 570.779 1014.11 592.916 1006.21C642.384 988.547 686.67 959.974 727.232 924.738C734.157 918.775 740.646 912.774 746.63 906.797C781.294 871.811 821.318 848.463 866.123 834.88C869.667 833.803 873.29 832.606 876.953 831.348C936.275 810.951 963.259 791.418 986.867 751.894C990.661 745.54 994.638 739.144 999.091 732.568C1009 718.047 1024.28 706.259 1047.04 697.269C1075.28 686.096 1103.96 672.221 1132.79 654.099C1183.17 622.427 1211.48 591.362 1231.88 559.955C1261.09 514.969 1307.3 469.55 1376.14 424.083C1414.55 398.623 1455.7 377.369 1494.02 363.187C1549.07 342.739 1595.79 311.742 1638.72 274.05C1670.21 246.396 1699.9 218.604 1731.08 190.921C1748.43 175.517 1765.4 159.55 1789.28 145.651C1789.21 146.892 1789.69 147.733 1789.07 148.214C1726.65 196.875 1680.46 247.046 1619.56 295.872C1582.75 325.382 1545 347.477 1502.89 364.213C1401.16 404.634 1323.75 457.592 1263.25 526.786C1252.84 538.697 1246.34 549.428 1239.05 560.453C1202.45 615.726 1145.9 659.048 1062.93 695.388C1017.43 715.337 1016.58 715.998 998.789 745.068C996.37 749.003 994.152 752.865 991.595 756.853C970.7 789.648 941.882 811 891.686 830.577C878.144 835.854 864.848 840.614 851.875 844.828C816.756 856.25 786.375 875.383 759.271 901.337C751.378 908.911 743.002 916.568 734.629 924.183C690.061 964.749 640.121 994.598 585.525 1013.85C556.074 1024.21 527.119 1033.79 497.739 1044.07C480.793 1050 463.279 1057.22 444.991 1066.98C425.526 1077.36 409.237 1089.26 401.079 1101.87C377.513 1138.3 335.922 1171.95 280.881 1203.84C252.771 1220.13 226.377 1238.27 199.935 1256.43L196.727 1253.97Z" fill="url(#paint2_linear_9_10)"/>
<path d="M0.285597 1106.35C7.72502 1101.5 15.0796 1096.48 22.6435 1091.81C62.3066 1067.19 92.3647 1041.66 111.445 1014.89C130.748 987.847 152.753 971.629 193.866 954.062C227.856 939.53 259.887 928.921 291.288 919.034C358.48 897.854 418.166 862.757 469.202 811.711C505.024 775.887 544.658 752.446 590.542 738.327C601.968 734.774 613.877 730.427 626.09 725.351C662.684 710.247 688.41 690.954 704.452 666.789C709.429 659.252 712.898 652.241 717.515 644.836C732.004 621.525 742.781 613.254 779.128 597.735C838.302 572.459 891.224 541.284 930.905 497.046C942.545 484.057 950.275 472.092 958.048 460.115C978.762 428.202 1011.67 395.006 1053.68 361.01C1107.14 317.743 1165.14 287.078 1223.22 264.705C1271.13 246.237 1312.09 220.342 1351.68 187.27C1388.65 156.407 1420.44 125.348 1455.33 94.4189C1489.01 64.5757 1525.03 36.0754 1569.91 13.1541C1579.78 8.11593 1589.97 2.52857 1600.45 0.23C1596.83 3.15445 1594.99 5.12274 1593.34 5.94549C1534.17 33.9985 1487.77 70.3672 1445.24 109.68C1414.66 137.946 1384.47 166.259 1350.19 194.321C1311.41 226.081 1270.91 250.567 1225.23 268.673C1122.98 309.176 1045.97 362.419 985.291 433.019C976.02 443.804 970.122 453.563 963.555 463.559C927.565 518.385 872.653 560.609 787.942 598.628C741.734 619.374 739.886 620.842 722.044 650.188C718.466 656.072 715.016 661.941 710.709 668.039C692.381 693.972 666.533 713.217 627.492 729.533C612.218 735.918 597.305 741.421 582.966 745.962C543.052 758.523 508.848 779.155 478.583 809.611C460.773 827.595 439.288 845.683 415.463 862.753C379.883 888.209 343.76 905.443 307.938 918.187C272.568 930.778 238.852 940.323 202.161 955.352C166.746 969.86 136.108 986.345 115.925 1017.62C94.9486 1050.15 50.3417 1080.36 3.68217 1108.7L0.285597 1106.35Z" fill="url(#paint3_linear_9_10)"/>
<path d="M54.5061 1145.09C82.7063 1126.54 113.091 1110.72 139.185 1089.37C158.884 1073.25 174.083 1058.06 184.962 1042.88C204.758 1015.28 227.742 998.288 269.333 980.656C301.754 966.897 332.356 956.67 362.232 947.385C430.536 926.125 491.843 890.885 544.32 838.083C580.192 802.003 620.217 779.042 665.72 765.358C675.714 762.249 686.127 758.452 696.804 754.025C736.915 737.756 761.337 719.688 778.792 693.383C784.12 685.366 787.879 677.827 792.93 669.893C806.102 649.182 817.744 640.416 849.869 626.498C892.118 608.167 933.62 587.699 971.792 555.966C999.51 532.933 1017.32 511.505 1030.16 490.972C1075.82 418.112 1174.96 341.003 1284.64 297.571C1350.73 271.394 1401.93 236.835 1451.47 192.521C1491.49 156.73 1527.56 120.554 1573.43 85.2753C1597.5 66.7725 1622.76 50.0336 1655.71 35.9485C1639.27 49.122 1625.42 54.9935 1613 63.0032C1575.65 87.0862 1545.81 112.896 1516.85 139.174C1480.98 171.737 1447.26 204.456 1405.09 236.503C1372.19 261.497 1338.73 280.454 1303.1 294.339C1241.18 318.419 1180.75 350.18 1125.16 396.125C1088.69 426.262 1059.81 455.849 1041.87 483.985C1001.81 546.924 945.81 590.041 849.439 631.298C824.913 641.796 810.391 652.896 801.737 667.875C796.698 676.591 791.2 685.498 784.981 694.581C766.442 721.622 738.955 741.928 698.244 758.304C681.616 764.911 665.301 770.83 649.413 776.021C614.237 787.672 583.916 806.624 557.027 832.743C533.928 855.204 508.856 877.563 477.48 898.294C441.545 922.026 406.481 937.28 372.057 949.006C339.237 960.19 307.293 969.776 272.738 984.17C229.448 1002.2 212.537 1014.13 192.209 1042.53C168.285 1075.95 128.139 1105.49 80.7172 1133.87C73.0087 1138.47 65.313 1143.02 57.6031 1147.6L54.5061 1145.09Z" fill="url(#paint4_linear_9_10)"/>
<path d="M179.147 1240.52C202.264 1220.59 230.355 1205.46 256.937 1189.53C306.189 1159.94 344.413 1130.05 366.436 1096.62C379.706 1076.46 402.025 1060.68 436.985 1045.05C469.692 1030.42 500.06 1020.56 530.448 1010.58C575.352 995.825 620.374 978.981 668.28 943.309C688.657 928.107 707.196 912.282 723.11 896.506C756.259 863.788 793.562 840.944 836.339 827.873C838.468 827.234 840.733 826.336 842.936 825.571C915.009 800.593 938.72 783.343 966.244 735.834C981.387 709.71 991.156 702.165 1033.63 683.802C1116.54 647.944 1175.52 602.847 1206.91 551.302C1251.02 478.87 1357.02 398.303 1468.4 354.737C1521.85 333.838 1567.14 305.918 1609.14 269.065C1644.96 237.636 1679.09 206.059 1714.82 174.613C1731.37 160.052 1748.2 144.907 1771.79 132.849C1709.1 180.675 1663.89 229.778 1606.07 277.874C1564.73 312.247 1521.91 338.533 1472.79 357.689C1377.11 394.956 1299.29 448.715 1239.55 516.451C1229.52 527.814 1222.51 538.26 1215.79 548.73C1178.51 606.88 1121.15 650.636 1031.1 689.788C995.298 705.336 990.2 709.285 976.161 732.056C974.944 734.029 973.891 735.947 972.695 737.913C945.046 783.648 912.035 808.211 844.367 829.799C796.215 845.131 758.551 867.54 721.875 903.958C673.085 952.365 614.485 987.408 549.569 1009.02C518.23 1019.49 487.364 1029.27 454.761 1042.23C409.488 1060.25 389.9 1074.46 366.878 1105.42C346.892 1132.26 316.346 1157.69 276.699 1182.39C244.974 1202.18 211.317 1219.73 182.344 1242.96L179.147 1240.52Z" fill="url(#paint5_linear_9_10)"/>
<path d="M159.969 1225.83C187.107 1206.8 216.049 1190.47 244.284 1173.17C285.862 1147.67 317.347 1121.44 337.171 1093.41C355.555 1067.43 376.102 1052.18 415.41 1034.78C452.052 1018.55 485.863 1007.92 519.505 997.187C584.216 976.536 642.724 942.33 691.656 893.554C730.631 854.675 772.096 830.32 820.991 815.738C832.382 812.226 844.395 807.691 856.725 802.246C888.999 788.193 913.366 769.743 927.8 748.545C935.004 737.97 940.297 727.952 947.198 717.463C957.382 701.975 973.486 689.114 998.394 679.316C1018.84 671.241 1040.04 661.157 1061.13 649.482C1122.45 615.639 1158.24 579.561 1181.23 543.199C1202.68 509.28 1236.26 474.329 1281.66 438.051C1327.62 401.32 1377.38 374.305 1428.88 351.756C1452.6 341.367 1475.29 334.09 1500.2 320.284C1536.31 300.27 1565.64 276.856 1592.97 252.87C1626.94 223.047 1658.96 193.072 1692.67 163.236C1710.1 147.806 1728.82 132.249 1753.66 117.337C1752.58 120.167 1752.69 121.681 1751.52 122.51C1699.22 159.834 1660.57 198.78 1617.77 237.221C1599.11 254.066 1579.08 270.811 1557.92 287.245C1525.21 312.559 1491.61 331.27 1456.09 345.451C1332.22 394.976 1242.47 461.406 1188.2 543.588C1151.9 598.562 1098.31 639.549 1012.01 678.329C966.531 698.767 965.735 699.429 947.762 728.561C944.141 734.458 940.473 740.387 936.32 746.444C918.597 772.25 892.862 791.763 853.902 808.163C837.853 814.845 822.185 820.605 807.119 825.361C768.01 837.903 734.34 858.309 704.409 887.976C693.382 898.842 681.335 909.74 668.428 920.524C624.85 957.059 578.305 981.701 529.86 998.51C496.219 1010.2 463.684 1019.77 428.569 1034.05C383.394 1052.43 364.769 1065.61 342.282 1096.1C318.471 1128.38 279.777 1156.93 234.101 1184.57C210.361 1198.92 186.821 1213.71 163.194 1228.3L159.969 1225.83Z" fill="url(#paint6_linear_9_10)"/>
<path d="M107.24 1185.47C134.413 1168.23 161.741 1151.16 188.749 1133.72C222.308 1112.05 245.758 1089.83 262.132 1067.19C283.118 1038.19 300.368 1025.66 344.35 1006.86C382.236 990.703 417.196 980 452.691 968.163C511.214 948.652 562.698 916.762 609.582 873.839C616.696 867.303 623.616 860.777 630.601 854.256C657.309 829.315 687.356 810.198 721.739 798.145C739.353 791.977 756.865 786.208 774.958 778.862C813.616 763.229 835.924 746.516 853.085 721.006C860.193 710.449 866.097 700.24 872.923 689.762C882.343 675.301 897.624 663.557 920.41 654.336C947.926 643.199 975.809 630.073 1003.91 612.597C1056.29 580.076 1086.63 547.682 1106.38 515.58C1124.55 486.076 1154.55 454.868 1192.44 423.104C1243.66 380.161 1301.78 345.369 1360.34 323.293C1424.72 299.011 1476.23 263.599 1525.5 219.873C1560.97 188.404 1592.86 156.726 1631.11 125.413C1651.28 108.875 1673.93 93.0578 1697.64 78.9477C1701.97 79.1236 1700.14 81.243 1698.3 82.3953C1641.55 117.788 1601.74 156.76 1559.72 195.26C1539.12 214.302 1517.17 233.294 1494.07 252.069C1457.56 281.509 1419.39 304.619 1377.54 320.625C1324.82 340.814 1272.69 367.982 1222.18 405.546C1174.56 440.939 1138.9 476.064 1118.03 509.18C1078.65 571.646 1021.24 616.399 923.895 657.548C900.006 667.65 886.423 678.039 878.003 692.38C872.62 701.603 867.458 710.791 860.926 720.36C843.582 745.798 816.514 766.219 778.369 782.109C760.865 789.317 743.751 795.604 727.227 800.895C692.049 812.316 661.713 831.575 634.061 857.222C624.104 866.461 614.213 875.728 603.816 884.948C562.068 922.135 515.536 950.259 465.012 968.563C438.383 978.201 412.335 986.65 386.013 995.773C365.471 1002.9 344.551 1010.69 322.368 1021.92C303.35 1031.59 285.28 1043.13 277.124 1056.06C251.843 1096.33 204.155 1132.33 144.861 1166.88C133.302 1173.62 121.914 1180.88 110.431 1187.91L107.24 1185.47Z" fill="url(#paint7_linear_9_10)"/>
<path d="M142.395 1212.38C167.742 1194.02 195.437 1178.98 222.041 1162.58C263.22 1137.22 292.846 1111.6 312.185 1084.36C330.012 1059.22 349.875 1044.34 388.541 1026.87C413.483 1015.6 436.8 1007.78 460.162 999.799C476.967 994.055 493.658 988.496 510.461 982.728C563.674 964.462 614.915 934.929 654 895.975C701.242 848.878 748.999 820.603 809.94 801.695C858.136 786.736 887.753 763.864 908.647 730.568C909.891 728.593 911.231 726.578 912.268 724.671C932.395 687.884 949.104 680.955 990.158 663.207C1066.46 630.21 1121.26 588.176 1153.02 538.597C1173.7 506.272 1203.59 473.168 1245.01 438.41C1299.17 392.956 1359.57 360.109 1420.31 336.464C1470.71 316.838 1513.67 290.131 1555.11 255.024C1593.51 222.507 1626.76 189.78 1664.27 157.288C1685.3 139.073 1706.71 120.815 1733.82 105.215C1736.97 107.623 1731.57 111.207 1727.47 113.968C1688.6 140.152 1658.87 167.953 1628.49 195.712C1594.63 226.658 1562.01 257.718 1520.03 287.666C1491.86 307.915 1460.43 325.263 1430.81 336.898C1307.66 386.067 1216.49 453.542 1162.63 535.082C1125.35 591.509 1066.22 636.02 979.634 672.851C945.449 687.394 940.571 691.125 926.154 713.811C922.374 719.768 918.844 725.643 914.973 731.622C892.875 765.811 864.95 786.212 813.123 805.97C804.064 809.537 795.207 812.673 786.632 815.35C744.595 827.829 708.682 850.08 676.197 882.4C654.294 904.211 628.341 925.645 596.877 945.629C557.398 970.71 521.14 984.504 485.155 996.579C456.823 1006.07 428.994 1014.72 398.997 1027.23C354.523 1045.76 340.769 1055.27 319.128 1085.11C295.253 1117.99 255.666 1147.09 209.713 1175.39C188.358 1188.54 166.974 1201.67 145.607 1214.81L142.395 1212.38Z" fill="url(#paint8_linear_9_10)"/>
<path d="M124.815 1198.92C149.251 1180.91 176.525 1167.11 202.053 1150.46C241.885 1124.47 271.509 1099.1 289.931 1071.81C304.933 1049.6 326.827 1034.25 364.364 1017.76C398.536 1002.73 430.779 991.874 461.949 982.285C531.244 961.036 593.046 924.723 646.085 871.806C681.618 836.396 720.875 813.823 765.584 800.19C774.122 797.559 782.974 794.42 792.044 790.808C839.426 772.095 862.265 755.222 881.719 724.455C905.975 686.108 904.669 679.661 977.067 648.737C1046.63 619.046 1098.47 576.012 1129.06 527.972C1149.27 496.194 1179.62 463.422 1220.58 429.286C1272.5 386.013 1330.93 352.634 1389.01 330.475C1450.92 306.812 1500.9 272.637 1547.83 230.927C1582 200.54 1615.03 170.064 1649.68 139.721C1669.16 122.661 1691.05 105.894 1716.55 92.0141C1718.9 94.0435 1714.87 97.0332 1711.44 99.2654C1665.52 129.175 1631.33 161.276 1596.28 193.452C1564.38 222.741 1533.2 252.183 1493 280.407C1462.68 301.682 1433.06 317.556 1401.49 329.885C1300.2 369.437 1215.31 428.263 1157.03 498.755C1150.15 507.101 1144.87 515.2 1140 523.048C1106.92 576.489 1044.66 624.798 961.689 661.133C915.955 681.176 914.162 682.572 896.647 712.032C895.186 714.476 893.995 716.81 892.487 719.287C871.564 754.307 840.443 777.48 786.638 797.858C774.732 802.359 763.111 806.171 751.554 809.964C715.538 821.788 684.578 841.681 656.969 868.156C639.95 884.47 622.345 900.653 600.786 916.646C559.317 947.466 517.951 968.129 475.884 982.424C443.832 993.311 412.402 1003.06 379.025 1016.32C332.38 1034.85 316.002 1046.16 293.088 1077.5C270.476 1108.53 233.483 1136.42 189.863 1163.39C169.295 1176.12 148.627 1188.71 128.011 1201.37L124.815 1198.92Z" fill="url(#paint9_linear_9_10)"/>
<path d="M19.3463 1118.18C72.8016 1086.48 117.539 1053.67 141.371 1016.43C154.252 996.287 180.625 980.666 208.965 967.868C248.105 950.175 283.861 939.196 319.882 927.467C365.14 912.733 409.199 890.523 452.961 856.67C470.268 843.278 485.175 829.658 499.04 816.104C530.597 785.253 566.301 764.067 606.591 751.068C624.622 745.264 642.866 738.942 662.565 729.718C690.72 716.528 711.407 700.822 723.806 682.536C731.671 670.947 738.291 659.721 746.135 648.139C758.705 629.621 768.533 622.167 796.665 610.367C823.678 599.049 850.529 586.335 877.895 569.365C929.402 537.402 959.941 505.522 979.517 473.873C997.415 444.933 1025.85 414.55 1062.58 383.143C1116.33 337.148 1177.02 302.026 1238.97 278.169C1295.84 256.284 1343.71 225.352 1388.08 186.314C1416.43 161.377 1443.57 136.34 1471.2 111.353C1506.74 79.1962 1545.23 48.6848 1593.19 23.4004C1603.54 17.9345 1603.55 17.9863 1617.72 13.5126C1615.73 15.2387 1614.04 17.214 1612.46 18.0025C1554.52 46.74 1508.77 82.6773 1467.03 121.343C1434.72 151.239 1403 181.258 1365.72 210.723C1330.46 238.626 1293.88 260.661 1253.41 276.79C1131.06 325.597 1039.64 393.63 985.644 475.318C949.205 530.436 891.243 574.296 806.585 610.812C767.092 627.85 764.137 630.103 748.409 655.303C714.003 710.457 690.073 728.038 609.718 754.641C567.476 768.62 532.36 789.689 500.641 820.915C444.964 875.693 381.697 913.358 309.699 935.716C279.09 945.348 247.935 955.355 214.441 970.131C177.183 986.564 161.846 997.721 144.099 1022.46C118.077 1058.73 75.6148 1090.81 22.5426 1120.62L19.3463 1118.18Z" fill="url(#paint10_linear_9_10)"/>
<path d="M36.9262 1131.64C56.6521 1119.23 77.1858 1107.4 95.9028 1094.32C125.937 1073.31 147.883 1051.96 162.326 1030.65C177.683 1008.03 195.761 994.569 230.575 978.194C258.891 964.878 285.041 956.235 311.348 947.213C327.419 941.702 343.299 936.544 359.428 930.918C408.691 913.736 454.565 887.332 496.222 850.438C504.786 842.857 513.751 835.173 521.176 827.65C553.782 794.629 591.407 772.486 634.304 758.781C648.614 754.27 663.518 748.77 678.787 742.365C713.429 727.673 736.047 710.54 751.452 687.793C758.608 677.227 763.891 667.224 770.765 656.736C780.544 641.824 796.296 629.624 820.183 619.68C860.513 602.898 900.424 583.185 938.598 553.542C973.462 526.471 992.112 502.078 1008.18 477.663C1035.8 435.739 1079.76 393.072 1142.06 350.809C1182.33 323.404 1226.09 300.504 1266.66 285.598C1322.66 264.929 1369.79 232.928 1413.44 194.88C1450.71 162.386 1485.86 129.706 1522.94 97.1552C1548.7 74.5097 1578.26 53.4543 1611.4 35.7994C1619.27 31.6108 1628.63 25.228 1636.29 26.2325C1620.64 35.3376 1606.1 43.2897 1592.1 52.0448C1555.44 74.9732 1524.98 100.077 1496.66 125.986C1468.73 151.535 1440.92 177.152 1411.46 202.555C1369.34 238.912 1323.79 267.677 1270.38 288.945C1156.29 334.379 1062.3 405.145 1013.41 480.284C975.455 538.686 918.386 582.072 828.099 621.156C792.544 636.533 789.357 638.995 775.075 661.761C772.899 665.224 770.893 668.636 768.718 672.099C741.549 715.659 713.985 735.656 648.972 758.935C641.584 761.586 634.289 764.072 627.085 766.394C591.592 777.801 560.451 796.921 532.132 823.76C517.269 837.843 501.631 852.196 484.472 865.998C445.441 897.39 403.586 920.267 360.651 935.372C326.848 947.256 293.726 957.71 259.298 970.954C201.794 993.083 184.345 1007.77 164.779 1036.44C140.039 1072.69 91.2937 1104.36 40.1225 1134.08L36.9262 1131.64Z" fill="url(#paint11_linear_9_10)"/>
<defs>
<linearGradient id="paint0_linear_9_10" x1="734.5" y1="743" x2="1110.99" y2="615.808" gradientUnits="userSpaceOnUse">
<stop stop-color="#00FFA3" stop-opacity="0.1"/>
<stop offset="1" stop-color="#7000FF"/>
</linearGradient>
<linearGradient id="paint1_linear_9_10" x1="734.5" y1="743" x2="1110.99" y2="615.808" gradientUnits="userSpaceOnUse">
<stop stop-color="#00FFA3" stop-opacity="0.1"/>
<stop offset="1" stop-color="#7000FF"/>
</linearGradient>
<linearGradient id="paint2_linear_9_10" x1="734.5" y1="743" x2="1110.99" y2="615.808" gradientUnits="userSpaceOnUse">
<stop stop-color="#00FFA3" stop-opacity="0.1"/>
<stop offset="1" stop-color="#7000FF"/>
</linearGradient>
<linearGradient id="paint3_linear_9_10" x1="734.5" y1="743" x2="1110.99" y2="615.808" gradientUnits="userSpaceOnUse">
<stop stop-color="#00FFA3" stop-opacity="0.1"/>
<stop offset="1" stop-color="#7000FF"/>
</linearGradient>
<linearGradient id="paint4_linear_9_10" x1="734.5" y1="743" x2="1110.99" y2="615.808" gradientUnits="userSpaceOnUse">
<stop stop-color="#00FFA3" stop-opacity="0.1"/>
<stop offset="1" stop-color="#7000FF"/>
</linearGradient>
<linearGradient id="paint5_linear_9_10" x1="734.5" y1="743" x2="1110.99" y2="615.808" gradientUnits="userSpaceOnUse">
<stop stop-color="#00FFA3" stop-opacity="0.1"/>
<stop offset="1" stop-color="#7000FF"/>
</linearGradient>
<linearGradient id="paint6_linear_9_10" x1="734.5" y1="743" x2="1110.99" y2="615.808" gradientUnits="userSpaceOnUse">
<stop stop-color="#00FFA3" stop-opacity="0.1"/>
<stop offset="1" stop-color="#7000FF"/>
</linearGradient>
<linearGradient id="paint7_linear_9_10" x1="734.5" y1="743" x2="1110.99" y2="615.808" gradientUnits="userSpaceOnUse">
<stop stop-color="#00FFA3" stop-opacity="0.1"/>
<stop offset="1" stop-color="#7000FF"/>
</linearGradient>
<linearGradient id="paint8_linear_9_10" x1="734.5" y1="743" x2="1110.99" y2="615.808" gradientUnits="userSpaceOnUse">
<stop stop-color="#00FFA3" stop-opacity="0.1"/>
<stop offset="1" stop-color="#7000FF"/>
</linearGradient>
<linearGradient id="paint9_linear_9_10" x1="734.5" y1="743" x2="1110.99" y2="615.808" gradientUnits="userSpaceOnUse">
<stop stop-color="#00FFA3" stop-opacity="0.1"/>
<stop offset="1" stop-color="#7000FF"/>
</linearGradient>
<linearGradient id="paint10_linear_9_10" x1="734.5" y1="743" x2="1110.99" y2="615.808" gradientUnits="userSpaceOnUse">
<stop stop-color="#00FFA3" stop-opacity="0.1"/>
<stop offset="1" stop-color="#7000FF"/>
</linearGradient>
<linearGradient id="paint11_linear_9_10" x1="734.5" y1="743" x2="1110.99" y2="615.808" gradientUnits="userSpaceOnUse">
<stop stop-color="#00FFA3" stop-opacity="0.1"/>
<stop offset="1" stop-color="#7000FF"/>
</linearGradient>
</defs>
</svg>
