<svg width="623" height="809" viewBox="0 0 623 809" fill="none" xmlns="http://www.w3.org/2000/svg">
<path d="M-282.278 808.965C-284.797 797.184 -287.803 785.402 -289.753 773.517C-291.866 760.498 -293.532 747.377 -294.548 734.256C-299.449 675.761 -292.328 616.991 -273.502 560.551C-268.789 546.811 -262.735 533.071 -256.762 519.332C-252.293 509.027 -247.499 499.169 -242.014 489.413C-208.535 429.783 -162.746 378.431 -100.136 338.276C-55.8982 310.569 -7.84819 287.501 42.9614 269.578C72.9053 258.654 103.499 248.968 132.793 236.808C168.547 222.141 201.863 203.901 229.248 179.067C260.126 151.072 278.856 117.582 290.192 80.8622C301.385 42.8949 303.704 3.44543 297.018 -35.2729L301.893 -35.2729C303.031 -22.6667 304.778 -10.0949 305.184 2.51134C307.012 59.1534 292.995 112.429 255.982 160.518C235.667 186.624 208.527 206.684 177.404 222.931C161.736 231.229 145.45 238.664 128.649 245.189C96.4298 257.452 63.6418 268.478 31.1382 280.295C-0.456374 291.886 -31.0094 305.41 -60.2781 320.758C-132.615 358.428 -191.201 412.298 -229.54 476.395C-238.195 490.444 -246.361 504.802 -253.349 519.503C-270.037 555.261 -281.405 592.633 -287.194 630.761C-293.196 667.529 -294.558 704.732 -291.257 741.744C-289.426 764.394 -285.458 786.884 -279.393 809L-282.278 808.965Z" fill="url(#paint0_linear_9_50)"/>
<path d="M545.282 -35.2729C548.448 -20.0306 551.899 -4.82262 554.7 10.454C559.723 40.7889 561.083 71.4774 558.759 102.045C557.424 127.971 553.486 153.754 546.987 179.115C542.4 196.28 537.367 213.445 530.75 230.266C522.362 252 512.091 273.181 500.021 293.638C475.669 336.054 442.631 374.489 402.437 407.166C387.035 419.377 370.768 430.784 353.726 441.324C306.111 470.95 253.341 493.024 198.582 511.803C182.061 517.467 165.337 522.822 149.14 528.968C135.623 534.186 122.633 540.365 109.563 546.407C86.2952 557.063 64.7062 570.154 45.3049 585.371C12.8309 611.084 -7.91183 642.907 -21.145 678.404C-36.0418 719.652 -40.101 763.155 -33.0385 805.869C-33.0385 806.693 -32.6327 807.483 -32.4297 808.273L-37.3008 808.273C-38.5591 792.138 -40.9947 775.968 -40.7917 759.834C-40.294 743.941 -38.681 728.087 -35.9612 712.356C-30.764 679.737 -17.619 648.385 2.64218 620.284C22.4229 593.006 49.4921 570.031 81.6757 553.204C96.0454 545.377 111.349 538.717 126.327 531.748C157.868 517.124 192.168 507.923 225.048 495.977C264.829 481.758 303.007 464.523 339.113 444.482C402.803 408.745 451.554 361.714 488.412 305.379C501.409 285.626 512.565 265.046 521.779 243.826C529.002 226.824 535.1 209.495 540.046 191.92C554.44 141.388 559.601 89.29 555.349 37.437C553.725 16.4938 550.525 -4.34054 545.769 -24.9397L543.252 -35.2386L545.282 -35.2729Z" fill="url(#paint1_linear_9_50)"/>
<path d="M-303.207 809C-306.579 791.823 -310.682 774.99 -313.201 757.847C-320.569 708.126 -319.2 657.757 -309.139 608.375C-305.005 588.069 -299.58 567.966 -292.888 548.153C-286.756 529.999 -279.307 512.182 -270.584 494.802C-239.91 433.55 -196.805 379.546 -137.246 335.471C-93.6059 303.915 -45.3692 277.212 6.28841 256.011C39.3993 242.029 73.079 229.009 106.271 215.13C117.565 210.424 128.169 204.549 138.773 198.915C167.749 184.442 193.369 165.63 214.379 143.4C240.015 115.264 254.762 83.1094 262.481 48.481C268.299 20.8303 269.175 -7.40221 265.081 -35.2729L269.957 -35.2729C272.745 -15.8981 273.343 3.65724 271.744 23.1281C266.991 71.5666 250.375 116.295 213.242 154.359C197.293 170.158 178.852 184.029 158.436 195.583C117.809 219.63 72.4289 236.086 27.6581 253.503C-26.7177 273.965 -77.7792 300.218 -124.286 331.623C-174.202 366.484 -215.459 409.357 -245.679 457.769C-252.701 468.253 -259.061 479.043 -264.733 490.096C-273.265 507.719 -281.35 525.514 -288.256 543.619C-300.104 575.733 -307.907 608.816 -311.535 642.316C-317.386 689.095 -315.677 736.33 -306.457 782.719C-304.67 791.514 -302.395 800.205 -300.282 808.931L-303.207 809Z" fill="url(#paint2_linear_9_50)"/>
<path d="M566.544 -35.17C568.899 -24.0765 571.416 -13.0516 573.527 -1.9581C581.099 38.9311 582.884 80.4379 578.846 121.684C575.35 163.623 565.484 205.005 549.492 244.812C542.956 260.542 535.079 275.894 527.365 291.247C508.819 327.129 484.455 360.651 454.976 390.847C421.034 426.257 380.191 455.107 335.206 480.145C291.561 504.187 245.034 523.66 197.735 541.966C181.211 548.354 164.768 555.017 149.015 562.573C111.948 580.192 77.1942 600.353 50.5607 629.134C25.47 656.13 10.6104 687.074 2.44986 720.492C-4.63999 749.606 -6.01163 779.509 -1.61014 809L-6.48209 809C-14.0587 762.926 -7.47281 715.978 12.6403 672.684C31.2351 633.084 62.7812 602.62 103.949 578.612C142.966 555.807 185.758 539.493 228.753 523.008C283.226 502.813 334.552 477.021 381.571 446.212C439.873 407.264 483.964 358.7 517.012 302.615C524.036 290.731 530.735 278.573 536.581 266.346C542.428 254.119 547.34 241.377 551.888 228.567C572.644 170.034 581.19 108.89 577.141 47.8766C575.532 19.8798 571.022 -7.9434 563.662 -35.2729L566.544 -35.17Z" fill="url(#paint3_linear_9_50)"/>
<path d="M-323.391 808.965C-324.65 803.193 -325.829 797.421 -327.129 791.787C-338.337 741.215 -341.073 689.561 -335.256 638.345C-329.749 585.585 -314.673 533.855 -290.558 484.972C-249.599 402.513 -186.86 334.588 -100.309 282.674C-57.8021 257.607 -13.2507 235.116 33.0112 215.367C72.1825 198.188 110.216 179.875 144.755 156.271C194.451 122.189 221.513 77.6608 230.777 24.7499C234.182 4.87345 234.809 -15.2725 232.647 -35.2729L237.523 -35.2729C238.092 -22.1139 239.636 -8.92059 239.026 4.20406C237.689 36.4115 228.343 68.0195 211.598 96.97C195.729 123.417 173.005 146.494 145.121 164.483C111.516 187.09 74.2955 204.75 36.0181 220.864C-17.7408 243.506 -69.6305 268.449 -117.741 299.268C-189.786 345.651 -243.098 404.403 -280.643 473.737C-312.334 532.935 -330.505 596.665 -334.199 661.571C-337.635 711.021 -332.959 760.634 -320.302 809L-323.391 808.965Z" fill="url(#paint4_linear_9_50)"/>
<path d="M586.273 -35.2729C590.336 -14.0081 595.902 7.11935 598.462 28.5216C606.79 94.3999 600.535 161.013 580.016 224.955C573.468 245.212 565.518 265.125 556.207 284.593C532.141 336.016 497.383 383.381 453.575 424.446C415.383 460.002 370.771 488.928 322.949 514.521C287.235 533.656 249.815 550.008 212.354 566.67C177.641 581.644 144.947 599.751 114.842 620.674C68.1988 653.997 42.7237 696.973 33.5819 747.404C29.745 767.775 29.0893 788.484 31.6317 809L25.5778 809C25.2934 796.255 24.1964 783.475 24.8465 770.73C26.9998 727.582 40.3671 687.285 70.0677 651.592C89.1232 628.712 114.07 610.952 141.089 595.149C172.781 576.598 206.95 561.654 241.364 547.054C294.711 524.346 345.905 498.684 392.711 467.045C454.171 425.148 503.761 372.15 537.842 311.938C570.246 255.627 590.067 194.738 596.308 132.338C602.604 76.9842 598.628 21.1386 584.526 -33.1772C584.484 -33.8638 584.484 -34.5519 584.526 -35.2386L586.273 -35.2729Z" fill="url(#paint5_linear_9_50)"/>
<path d="M606.721 -35.17L611.475 -13.7702C621.122 30.3863 624.397 75.369 621.228 120.192C613.588 230.557 572.1 330.445 491.683 418.173C457.63 455.339 416.589 486.425 372.012 514.351C330.402 540.56 286.191 562.852 241.573 584.905C206.313 601.692 173.207 621.526 142.789 644.088C103.99 673.514 78.3974 713.359 70.3365 756.892C66.9214 774.101 65.7089 791.571 66.72 809L60.8686 809C58.952 783.754 61.6938 758.411 68.9956 733.878C81.0057 694.6 107.387 659.532 144.374 633.681C175.128 612.078 208.262 593.019 243.32 576.764C290.026 555.047 335.133 530.959 378.392 504.63C489.488 435.348 561.25 343.463 597.294 231.45C620.477 158.95 626.006 83.2257 613.548 8.86589C611.15 -5.93868 607.209 -20.5371 603.998 -35.273L606.721 -35.17Z" fill="url(#paint6_linear_9_50)"/>
<path d="M411.739 -35.17C413.811 -20.8469 416.613 -6.59255 417.913 7.73055C425.264 90.5435 407.8 168.582 353.985 239.305C317.919 286.774 267.963 320.194 206.96 342.349C178.002 352.859 147.581 358.801 116.755 363.85C56.9014 373.63 0.625317 395.225 -47.4913 426.879C-99.4781 460.849 -135.95 504.814 -161.984 555.374C-191.795 613.216 -202.843 673.944 -200.406 736.663C-199.485 760.966 -196.17 785.162 -190.496 809L-195.369 809C-198.212 792.169 -201.949 775.407 -203.736 758.508C-208.347 716.025 -205.5 673.199 -195.288 631.421C-179.408 567.018 -147.85 508.97 -95.6197 459.681C-84.7138 449.725 -73.0603 440.375 -60.7317 431.688C-13.2125 397.34 41.983 375.494 102.499 362.992C123.619 358.664 145.266 355.813 166.02 350.523C266.704 324.865 338.349 271.282 380.019 189.363C405.691 138.503 417.317 83.3628 414.014 28.1332C413.039 8.28013 409.506 -11.4699 407.109 -31.2543C406.854 -32.6108 406.502 -33.9528 406.053 -35.2729L411.739 -35.17Z" fill="url(#paint7_linear_9_50)"/>
<path d="M-342.822 809C-345.139 798.688 -347.619 788.376 -349.733 777.858C-357.313 739.473 -360.039 700.514 -357.863 661.641C-355.861 615.022 -346.79 568.814 -330.87 524.148C-293.837 422.197 -227.453 337.157 -127.613 271.401C-83.1108 242.783 -36.3475 216.771 12.3499 193.545C48.1232 176.084 82.8802 157.453 114.426 134.458C149.521 109.772 175.018 76.7271 187.598 39.6214C195.624 15.0173 198.999 -10.5048 197.599 -36L203.534 -36C202.924 -20.9101 203.534 -5.71693 201.501 9.26985C195.726 59.9517 166.504 106.652 120.198 139.201C84.7502 164.775 45.1557 184.986 4.78876 204.235C-52.1233 231.218 -106.678 260.745 -155.947 297.043C-222.25 345.888 -270.95 405.319 -305.422 473.413C-328.051 518.39 -343.103 565.829 -350.139 614.344C-357.584 661.412 -357.735 709.101 -350.586 756.203C-347.781 773.87 -343.35 791.332 -339.692 808.897L-342.822 809Z" fill="url(#paint8_linear_9_50)"/>
<path d="M436.013 -35.2386C443.131 -2.39244 446.017 31.0099 444.621 64.3827C441.494 134.495 419.651 199.765 374.057 258.816C355.551 282.954 332.811 304.568 306.619 322.917C255.971 358.877 194.227 381.834 128.666 389.079C68.3333 395.95 14.984 417.042 -32.5595 448.955C-90.9838 488.185 -128.864 539.335 -152.413 598.593C-175.717 657.301 -180.59 717.589 -172.104 778.873C-170.724 788.938 -168.694 798.969 -166.988 809L-171.86 809C-187.492 735.624 -184.365 663.175 -155.092 592.341C-131.828 535.969 -95.1657 487.052 -39.9894 449.024C9.60002 414.318 69.7372 392.127 133.538 384.991C203.412 376.987 263.826 351.326 315.51 311.169C369.834 268.847 403.533 216.185 423.224 156.687C439.26 107.113 444.068 55.4207 437.394 4.33517C435.973 -7.68808 433.334 -19.7114 431.628 -31.5629C431.425 -32.7995 431.385 -34.0363 431.304 -35.2729L436.013 -35.2386Z" fill="url(#paint9_linear_9_50)"/>
<path d="M-147.642 808.931C-154.45 776.856 -156.957 744.234 -155.114 711.684C-151.053 643.223 -128.637 579.812 -81.2445 523.579C-40.0658 474.664 15.8951 442.683 82.4552 423.241C105.116 416.611 128.67 413.313 151.98 409.157C205.131 399.896 255.367 381.236 299.395 354.402C314.342 345.491 328.461 335.627 341.63 324.895C369.329 301.618 392.615 274.864 410.667 245.579C440.068 198.276 457.782 146.408 462.729 93.1302C467 50.2167 464.267 7.01007 454.607 -35.2729L459.562 -35.2729C470.005 9.97364 472.387 56.2873 466.628 102.13C460.729 152.567 443.34 201.56 415.418 246.403C398.915 273.433 377.923 298.327 353.082 320.326C310.15 357.469 257.335 385.383 199.047 401.737C173.016 409.329 145.888 412.901 119.207 418.294C49.8046 432.241 -10.3391 460.099 -57.9749 505.614C-91.8438 538.007 -114.829 575.689 -130.18 616.739C-150.485 670.497 -154.546 725.493 -146.992 781.279C-145.733 790.553 -144.19 799.759 -142.931 809L-147.642 808.931Z" fill="url(#paint10_linear_9_50)"/>
<path d="M-219.162 809C-221.153 798.318 -223.224 787.635 -225.052 776.885C-232.022 732.39 -231.434 687.281 -223.305 642.928C-213.783 588.284 -191.069 535.882 -156.574 488.98C-139.529 465.083 -118.658 443.295 -94.5542 424.234C-80.0959 413.266 -64.8788 403.035 -48.9837 393.596C0.64842 363.369 56.6165 344.959 115.631 333.246C167.578 322.942 216.032 306.18 259.166 279.183C300.106 253.593 329.593 220.31 350.835 181.531C380.159 128.017 390.719 71.6179 386.495 13.0203C385.358 -3.12327 382.434 -19.1638 380.322 -35.2729L386.17 -35.2729C387.592 -25.312 389.298 -15.4199 390.232 -5.45895C398.355 66.9122 386.17 136.089 345.108 200.801C311.113 254.28 259.816 291.239 194.547 315.282C165.385 326.033 134.761 332.456 104.015 338.982C51.3892 349.911 1.41658 368.508 -43.663 393.939C-97.8441 424.543 -138.053 465.486 -168.434 513.71C-200.22 564.637 -218.998 620.643 -223.549 678.1C-227.463 720.876 -224.512 763.904 -214.776 806.012C-214.621 806.957 -214.526 807.909 -214.492 808.862L-219.162 809Z" fill="url(#paint11_linear_9_50)"/>
<path d="M483.038 -35.2386C484.705 -26.0322 486.494 -16.8258 488.038 -7.75685C495.269 34.9728 495.556 78.3371 488.892 121.132C481.317 171.363 462.779 219.969 434.22 264.484C417.252 291.763 395.778 316.862 370.443 339.028C356.822 350.523 342.349 361.274 327.112 371.216C271.546 408.042 207.403 428.687 139.317 442.325C80.9458 454.039 27.7372 475.2 -17.2604 509.483C-52.787 536.484 -77.3792 569.84 -95.1832 606.94C-119.328 657.232 -127.377 709.722 -123.149 763.621C-121.93 778.804 -119.084 793.885 -116.93 809L-122.783 809C-124.856 792.236 -127.864 775.472 -128.881 758.674C-132.945 690.21 -117.906 625.319 -77.0134 565.409C-45.7956 519.652 -1.00112 486.605 54.8902 463.761C85.8408 451.585 118.303 442.367 151.674 436.279C204.387 426.092 254.604 408.238 300.081 383.514C319.2 373.177 337.136 361.354 353.655 348.2C389.469 319.104 418.676 284.712 439.829 246.724C476.738 182.176 491.087 113.712 488.363 42.3974C487.393 17.4089 484.049 -7.47346 478.364 -32.0095C478.214 -33.0925 478.146 -34.1826 478.161 -35.2729L483.038 -35.2386Z" fill="url(#paint12_linear_9_50)"/>
<path d="M-96.3133 809C-97.4099 800.445 -98.5879 791.822 -99.5627 783.267C-103.953 748.098 -102.119 712.573 -94.1199 677.862C-88.7094 655.443 -80.5414 633.565 -69.7491 612.585C-39.2856 553.251 12.2585 511.989 81.4309 485.775C101.979 477.923 123.185 471.366 144.876 466.158C196.258 453.893 246.421 438.673 292.36 415.482C308.198 407.483 323.532 398.791 338.299 389.44C391.549 355.771 430.298 312.001 459.34 261.909C501.095 189.761 515.637 113.387 510.438 33.749C508.994 11.3434 505.545 -10.9376 500.121 -32.9024C499.918 -33.6925 499.593 -34.4828 499.308 -35.2729L504.182 -35.2729C513.286 1.3094 517.253 38.6727 516.002 76.0417C513.849 146.335 495.409 213.158 456.172 275.308C430.014 316.88 396.91 353.847 353.612 383.737C309.564 413.781 259.673 437.114 206.169 452.69C187.566 458.29 168.394 462.482 149.588 467.601C89.7575 483.817 33.6642 505.839 -11.0156 544.628C-27.3103 559.414 -41.364 575.86 -52.8521 593.585C-67.547 616.041 -78.4829 640.114 -85.3464 665.115C-96.9376 706.483 -99.5524 749.286 -93.0638 791.444C-92.2921 797.319 -91.4391 803.159 -90.6268 809L-96.3133 809Z" fill="url(#paint13_linear_9_50)"/>
<path d="M-240.118 809C-241.946 800.234 -243.896 791.468 -245.561 782.668C-251.648 750.652 -253.691 718.178 -251.655 685.796C-246.252 597.518 -215.583 516.631 -152.58 445.369C-125.521 414.836 -92.346 388.553 -54.5622 367.713C-5.12663 340.213 48.7366 321.237 105.443 307.521C123.285 303.437 140.835 298.49 158.007 292.705C204.761 276.238 248.144 254.719 281.941 221.924C296.318 207.536 308.833 191.885 319.271 175.241C329.115 159.464 337.141 142.922 343.238 125.843C347.655 113.936 351.023 101.768 353.312 89.4385C356.566 74.4882 358.696 59.3783 359.689 44.1996C360.986 17.7481 359.066 -8.74613 353.962 -34.8655C353.824 -35.2609 353.633 -35.6416 353.393 -36L359.445 -36C363.415 -16.6184 365.467 3.00974 365.579 22.6801C366.559 55.9919 361.476 89.233 350.509 121.236C335.845 162.488 314.194 200.611 278.366 231.996C248.794 257.916 213.373 276.514 174.417 290.436C160.403 295.455 145.983 299.683 131.522 303.671C94.9631 313.984 57.1451 321.718 22.2518 336.019C-0.324602 344.771 -22.3197 354.56 -43.6352 365.341C-107.897 399.236 -155.789 445.988 -190.398 502.846C-219.567 550.759 -237.839 602.884 -244.262 656.507C-248.011 684.674 -248.718 713.072 -246.374 741.348C-245.115 755.82 -243.408 770.292 -241.174 784.662C-239.915 792.809 -237.112 800.784 -235.244 808.725L-240.118 809Z" fill="url(#paint14_linear_9_50)"/>
<path d="M525.816 -35.17C528.943 -17.9953 532.638 -0.820656 535.115 16.354C541.29 62.115 539.635 108.39 530.201 153.751C525.774 176.776 519.119 199.454 510.304 221.557C484.519 285.619 445.335 342.604 386.659 389.285C374.545 398.603 361.858 407.374 348.652 415.562C295.052 449.912 234.386 472.685 171 490.616C126.333 503.325 83.6157 519.881 45.3241 543.651C14.877 562.617 -10.109 587.158 -27.7668 615.441C-37.6488 630.459 -45.5338 646.357 -51.2777 662.843C-56.0258 677.488 -59.8482 692.337 -62.7286 707.326C-69.2256 739.683 -67.4389 772.109 -62.7286 804.5C-62.485 806.011 -62.3632 807.523 -62.2008 809L-67.5202 809C-69.1038 790.554 -71.3777 772.074 -72.068 753.56C-72.2054 731.619 -69.4819 709.732 -63.9468 688.296C-59.0923 667.875 -51.5889 647.969 -41.5729 628.941C-16.7626 580.577 24.6963 545.3 79.149 520.328C103.38 509.148 128.687 499.726 154.798 492.161C187.053 483.312 218.718 472.992 249.654 461.247C275.118 451.233 299.742 439.756 323.354 426.898C404.282 382.793 458.897 320.827 494.793 246.22C527.278 178.895 538.038 108.823 532.841 36.4141C531.744 21.8157 529.43 7.25143 527.237 -7.27835C525.856 -16.6557 523.704 -25.9299 521.918 -35.2729L525.816 -35.17Z" fill="url(#paint15_linear_9_50)"/>
<path d="M-262.654 809C-263.954 801.579 -265.011 794.125 -266.718 786.739C-272.854 757.109 -275.575 727.047 -274.844 696.973C-274.232 659.037 -268.465 621.287 -257.656 584.465C-254.771 574.812 -250.993 565.33 -247.498 555.78C-232.56 515.189 -210.258 476.805 -181.388 442.001C-157.276 411.766 -127.382 385.133 -92.9301 363.194C-76.9207 353.266 -60.4237 343.956 -43.5204 334.99C-0.896347 312.316 45.5065 296.789 92.9253 283.013C109.178 278.238 125.797 273.463 141.685 267.416C181.993 251.992 220.025 233.475 251.394 206.301C270.096 189.633 285.59 170.587 297.309 149.858C310.95 125.743 320.525 100.129 325.752 73.7652C333.27 39.0681 331.969 4.40537 326.809 -30.3604C326.565 -31.975 326.565 -33.624 326.484 -35.2729L332.051 -35.2729C332.741 -29.5359 333.838 -23.7989 334.082 -18.0962C334.895 0.970039 336.561 20.0707 335.586 39.1026C334.432 55.1308 331.824 71.0604 327.784 86.7509C324.548 100.329 320.203 113.702 314.781 126.773C289.833 186.995 242.048 230.108 174.841 258.141C159.441 264.565 143.635 270.371 127.626 275.592C99.8329 284.73 71.3085 292.357 43.8406 302.148C17.8761 311.423 -7.68205 321.798 -32.4682 333.066C-93.3921 361.022 -145.161 401.32 -183.135 450.349C-207.928 481.996 -227.683 516.267 -241.891 552.276C-265.423 612.708 -274.592 676.476 -268.871 739.915C-267.733 754.653 -265.62 769.356 -263.426 783.991C-262.167 792.407 -259.81 800.652 -257.941 808.965L-262.654 809Z" fill="url(#paint16_linear_9_50)"/>
<defs>
<linearGradient id="paint0_linear_9_50" x1="305.341" y1="386.863" x2="-296.049" y2="386.863" gradientUnits="userSpaceOnUse">
<stop stop-color="#BD00FF" stop-opacity="0.05"/>
<stop offset="0.515625" stop-color="#BD00FF" stop-opacity="0.38"/>
<stop offset="0.96875" stop-color="#3C00FF" stop-opacity="0"/>
<stop offset="1" stop-color="#3300FF" stop-opacity="0"/>
</linearGradient>
<linearGradient id="paint1_linear_9_50" x1="559.859" y1="386.5" x2="-40.8036" y2="386.5" gradientUnits="userSpaceOnUse">
<stop stop-color="#BD00FF" stop-opacity="0.05"/>
<stop offset="0.515625" stop-color="#BD00FF" stop-opacity="0.38"/>
<stop offset="0.96875" stop-color="#3C00FF" stop-opacity="0"/>
<stop offset="1" stop-color="#3300FF" stop-opacity="0"/>
</linearGradient>
<linearGradient id="paint2_linear_9_50" x1="272.617" y1="386.863" x2="-317.865" y2="386.863" gradientUnits="userSpaceOnUse">
<stop stop-color="#BD00FF" stop-opacity="0.05"/>
<stop offset="0.515625" stop-color="#BD00FF" stop-opacity="0.38"/>
<stop offset="0.96875" stop-color="#3C00FF" stop-opacity="0"/>
<stop offset="1" stop-color="#3300FF" stop-opacity="0"/>
</linearGradient>
<linearGradient id="paint3_linear_9_50" x1="580.948" y1="386.863" x2="-9.53432" y2="386.863" gradientUnits="userSpaceOnUse">
<stop stop-color="#BD00FF" stop-opacity="0.05"/>
<stop offset="0.515625" stop-color="#BD00FF" stop-opacity="0.38"/>
<stop offset="0.96875" stop-color="#3C00FF" stop-opacity="0"/>
<stop offset="1" stop-color="#3300FF" stop-opacity="0"/>
</linearGradient>
<linearGradient id="paint4_linear_9_50" x1="239.166" y1="386.863" x2="-338.226" y2="386.863" gradientUnits="userSpaceOnUse">
<stop stop-color="#BD00FF" stop-opacity="0.05"/>
<stop offset="0.515625" stop-color="#BD00FF" stop-opacity="0.38"/>
<stop offset="0.96875" stop-color="#3C00FF" stop-opacity="0"/>
<stop offset="1" stop-color="#3300FF" stop-opacity="0"/>
</linearGradient>
<linearGradient id="paint5_linear_9_50" x1="602.036" y1="386.863" x2="24.6438" y2="386.863" gradientUnits="userSpaceOnUse">
<stop stop-color="#BD00FF" stop-opacity="0.05"/>
<stop offset="0.515625" stop-color="#BD00FF" stop-opacity="0.38"/>
<stop offset="0.96875" stop-color="#3C00FF" stop-opacity="0"/>
<stop offset="1" stop-color="#3300FF" stop-opacity="0"/>
</linearGradient>
<linearGradient id="paint6_linear_9_50" x1="622.398" y1="386.863" x2="60.2763" y2="386.863" gradientUnits="userSpaceOnUse">
<stop stop-color="#BD00FF" stop-opacity="0.05"/>
<stop offset="0.515625" stop-color="#BD00FF" stop-opacity="0.38"/>
<stop offset="0.96875" stop-color="#3C00FF" stop-opacity="0"/>
<stop offset="1" stop-color="#3300FF" stop-opacity="0"/>
</linearGradient>
<linearGradient id="paint7_linear_9_50" x1="419.51" y1="386.863" x2="-205.877" y2="386.863" gradientUnits="userSpaceOnUse">
<stop stop-color="#BD00FF" stop-opacity="0.05"/>
<stop offset="0.515625" stop-color="#BD00FF" stop-opacity="0.38"/>
<stop offset="0.96875" stop-color="#3C00FF" stop-opacity="0"/>
<stop offset="1" stop-color="#3300FF" stop-opacity="0"/>
</linearGradient>
<linearGradient id="paint8_linear_9_50" x1="203.534" y1="386.5" x2="-358.588" y2="386.5" gradientUnits="userSpaceOnUse">
<stop stop-color="#BD00FF" stop-opacity="0.05"/>
<stop offset="0.515625" stop-color="#BD00FF" stop-opacity="0.38"/>
<stop offset="0.96875" stop-color="#3C00FF" stop-opacity="0"/>
<stop offset="1" stop-color="#3300FF" stop-opacity="0"/>
</linearGradient>
<linearGradient id="paint9_linear_9_50" x1="444.962" y1="386.863" x2="-181.152" y2="386.863" gradientUnits="userSpaceOnUse">
<stop stop-color="#BD00FF" stop-opacity="0.05"/>
<stop offset="0.515625" stop-color="#BD00FF" stop-opacity="0.38"/>
<stop offset="0.96875" stop-color="#3C00FF" stop-opacity="0"/>
<stop offset="1" stop-color="#3300FF" stop-opacity="0"/>
</linearGradient>
<linearGradient id="paint10_linear_9_50" x1="469.687" y1="386.863" x2="-155.7" y2="386.863" gradientUnits="userSpaceOnUse">
<stop stop-color="#BD00FF" stop-opacity="0.05"/>
<stop offset="0.515625" stop-color="#BD00FF" stop-opacity="0.38"/>
<stop offset="0.96875" stop-color="#3C00FF" stop-opacity="0"/>
<stop offset="1" stop-color="#3300FF" stop-opacity="0"/>
</linearGradient>
<linearGradient id="paint11_linear_9_50" x1="392.604" y1="386.863" x2="-229.874" y2="386.863" gradientUnits="userSpaceOnUse">
<stop stop-color="#BD00FF" stop-opacity="0.05"/>
<stop offset="0.515625" stop-color="#BD00FF" stop-opacity="0.38"/>
<stop offset="0.96875" stop-color="#3C00FF" stop-opacity="0"/>
<stop offset="1" stop-color="#3300FF" stop-opacity="0"/>
</linearGradient>
<linearGradient id="paint12_linear_9_50" x1="493.684" y1="386.863" x2="-129.521" y2="386.863" gradientUnits="userSpaceOnUse">
<stop stop-color="#BD00FF" stop-opacity="0.05"/>
<stop offset="0.515625" stop-color="#BD00FF" stop-opacity="0.38"/>
<stop offset="0.96875" stop-color="#3C00FF" stop-opacity="0"/>
<stop offset="1" stop-color="#3300FF" stop-opacity="0"/>
</linearGradient>
<linearGradient id="paint13_linear_9_50" x1="516.227" y1="386.863" x2="-101.888" y2="386.863" gradientUnits="userSpaceOnUse">
<stop stop-color="#BD00FF" stop-opacity="0.05"/>
<stop offset="0.515625" stop-color="#BD00FF" stop-opacity="0.38"/>
<stop offset="0.96875" stop-color="#3C00FF" stop-opacity="0"/>
<stop offset="1" stop-color="#3300FF" stop-opacity="0"/>
</linearGradient>
<linearGradient id="paint14_linear_9_50" x1="365.698" y1="386.5" x2="-252.417" y2="386.5" gradientUnits="userSpaceOnUse">
<stop stop-color="#BD00FF" stop-opacity="0.05"/>
<stop offset="0.515625" stop-color="#BD00FF" stop-opacity="0.38"/>
<stop offset="0.96875" stop-color="#3C00FF" stop-opacity="0"/>
<stop offset="1" stop-color="#3300FF" stop-opacity="0"/>
</linearGradient>
<linearGradient id="paint15_linear_9_50" x1="538.77" y1="386.863" x2="-72.073" y2="386.863" gradientUnits="userSpaceOnUse">
<stop stop-color="#BD00FF" stop-opacity="0.05"/>
<stop offset="0.515625" stop-color="#BD00FF" stop-opacity="0.38"/>
<stop offset="0.96875" stop-color="#3C00FF" stop-opacity="0"/>
<stop offset="1" stop-color="#3300FF" stop-opacity="0"/>
</linearGradient>
<linearGradient id="paint16_linear_9_50" x1="335.883" y1="386.863" x2="-274.96" y2="386.863" gradientUnits="userSpaceOnUse">
<stop stop-color="#BD00FF" stop-opacity="0.05"/>
<stop offset="0.515625" stop-color="#BD00FF" stop-opacity="0.38"/>
<stop offset="0.96875" stop-color="#3C00FF" stop-opacity="0"/>
<stop offset="1" stop-color="#3300FF" stop-opacity="0"/>
</linearGradient>
</defs>
</svg>
