<svg width="688" height="634" viewBox="0 0 688 634" fill="none" xmlns="http://www.w3.org/2000/svg">
<path d="M-16.3358 196.106C-13.27 202.162 -10.1918 208.21 -7.14537 214.27C-5.42963 217.69 -3.84939 221.181 -2.06447 224.569C8.74804 245.093 20.0998 265.33 32.4583 284.952C46.2737 306.91 61.0782 328.194 76.8031 348.707C102.131 381.723 129.832 412.564 159.552 440.84C180.89 461.137 203.21 480.063 226.368 497.495C245.986 512.247 266.155 525.934 286.786 538.494C309.345 552.27 332.41 564.709 355.863 575.75C376.495 585.464 397.35 594.15 418.427 601.808C460.182 616.836 502.483 627.939 544.834 634.988C568.818 639.004 592.739 641.677 616.591 643.237C622.465 643.622 628.356 643.506 634.209 643.89C646.378 644.683 658.378 644.427 670.456 644.636C671.78 644.663 673.104 644.682 674.424 644.704L676.421 648.203C668.517 648.798 660.431 648.516 652.388 648.462C633.215 648.293 613.977 647.035 594.684 645.298C572.871 643.343 551.015 640.041 529.149 635.989C508.257 632.123 487.429 627.108 466.652 621.249C444.705 615.059 422.906 607.72 401.255 599.232C378.891 590.449 356.796 580.531 334.972 569.479C307.957 555.756 281.531 540.173 255.872 522.836C226.321 502.882 197.92 480.557 170.949 456.081C159.134 445.365 147.578 434.303 136.388 422.767C118.337 404.198 101.105 384.675 84.7751 364.293C70.8947 346.944 57.7004 329.051 45.1922 310.614C35.3635 296.128 26.1252 281.232 17.2305 266.099C12.3263 257.747 7.76922 249.223 2.97431 240.822C-4.63308 227.493 -11.2238 213.663 -18.0399 199.948C-18.3647 199.158 -18.6282 198.348 -18.8272 197.528L-16.3358 196.106Z" fill="url(#paint0_linear_9_381)"/>
<path d="M642.174 681.629C623.305 680.346 604.427 678.439 585.501 675.736C565.636 672.912 545.779 669.28 525.929 664.84C503.555 659.79 481.277 653.677 459.092 646.5C435.178 638.727 411.446 629.668 387.99 619.358C374.953 613.627 362.046 607.47 349.218 600.977C320.759 586.532 292.93 570.094 265.927 551.776C244.108 536.97 222.89 520.915 202.377 503.693C177.634 482.941 153.984 460.516 131.601 436.583C110.2 413.697 90.0374 389.453 71.2564 364.024C60.7535 349.829 50.755 335.248 41.1298 320.367C29.4104 302.253 18.3841 283.732 8.05077 264.805C-1.1514 247.94 -9.79183 230.808 -17.7322 213.342C-19.7027 208.993 -21.7648 204.677 -23.7867 200.345L-20.8849 198.689C-16.5906 207.86 -12.3253 217.047 -7.98676 226.199C-5.37488 231.739 -2.76301 237.278 0.0742715 242.702C12.5626 266.577 25.709 290.102 40.1579 312.838C57.9537 340.892 77.388 367.806 98.3086 393.368C127.26 428.776 158.902 461.481 192.773 491.006C214.011 509.519 236.063 526.75 258.806 542.602C275.661 554.34 292.835 565.336 310.328 575.592C330.166 587.24 350.32 597.894 370.789 607.555C384.858 614.169 399.051 620.241 413.332 625.985C444.768 638.58 476.613 648.907 508.644 656.894C545.117 666.047 581.725 672.355 618.182 675.769C627.467 676.632 636.71 677.419 645.978 677.954C646.644 678.035 647.312 678.156 647.977 678.317L642.174 681.629Z" fill="url(#paint1_linear_9_381)"/>
<path d="M-25.8699 201.548C-22.3718 209.603 -18.8295 217.639 -15.3758 225.713C-10.7656 236.42 -5.59758 246.881 -0.50699 257.379C9.99212 279.03 21.7921 299.985 34.0813 320.66C41.8125 333.667 50.031 346.362 58.4523 358.922C70.2416 376.497 82.7194 393.507 95.7327 410.059C108.919 426.827 122.738 443.014 137.188 458.62C156.228 479.214 176.169 498.76 196.913 517.162C216.263 534.313 236.288 550.433 256.898 565.451C283.943 585.145 311.899 602.974 340.569 618.814C369.549 634.855 399.157 648.943 429.204 660.988C453.094 670.57 477.167 678.917 501.421 686.03C531.42 694.792 561.583 701.662 591.753 706.603C593.207 706.84 594.762 706.695 596.143 707.901L591.583 710.504C577.248 707.978 562.915 705.272 548.594 702.009C536.208 699.188 523.836 696.069 511.478 692.654C496.784 688.593 482.145 684.083 467.561 679.124C447.998 672.452 428.584 664.949 409.319 656.614C392.926 649.519 376.712 641.784 360.612 633.566C331.388 618.601 302.822 601.58 275.118 582.622C249.832 565.349 225.345 546.442 201.81 526.022C184.263 510.819 167.303 494.83 150.929 478.056C134.309 461.014 118.367 443.177 103.166 424.614C91.0273 409.835 79.3439 394.632 68.2403 378.951C58.4626 365.151 49.0021 351.117 40.0423 336.738C31.0826 322.358 22.2713 307.834 14.1816 292.918C7.86564 281.284 1.81164 269.559 -4.06698 257.728C-12.9658 239.815 -20.9849 221.566 -28.766 203.214L-25.8699 201.548Z" fill="url(#paint2_linear_9_381)"/>
<path d="M-31.2595 204.624C-28.1342 212.401 -25.0603 220.195 -21.8725 227.956C-16.9844 239.862 -11.7055 251.625 -6.36282 263.365C-0.46272 276.341 5.80215 289.138 12.4317 301.755C20.2389 316.58 28.1806 331.362 37.0234 345.643C42.477 354.457 47.7766 363.319 53.3817 372.013C60.5981 383.2 68.047 394.21 75.7284 405.043C87.8491 422.111 100.505 438.721 113.823 454.747C131.068 475.564 149.19 495.506 168.109 514.485C189.523 535.919 211.906 556.095 235.137 574.902C254.768 590.769 274.959 605.659 295.636 619.519C320.812 636.4 346.648 651.764 373.008 665.531C390.094 674.464 407.365 682.735 424.821 690.344C447.328 700.154 470.024 708.916 492.907 716.63C511.077 722.718 529.316 728.204 547.632 732.871C548.624 733.127 549.654 733.208 550.574 733.935L546.014 736.537L523.228 730.016C509.138 725.981 495.104 721.472 481.126 716.49C453.578 706.767 426.292 695.484 399.387 682.69C367.867 667.682 336.977 650.47 306.932 631.173C287.209 618.506 267.935 604.912 249.109 590.39C226.262 572.762 204.155 553.85 182.9 533.746C167.995 519.659 153.644 504.885 139.667 489.658C122.723 471.131 106.545 451.784 91.1979 431.696C79.0082 415.807 67.441 399.41 56.3049 382.662C41.0113 359.66 27.0508 335.863 13.8652 311.605C6.50831 298.059 -0.294077 284.224 -6.87782 270.291C-16.8144 249.26 -25.724 227.862 -34.1821 206.292L-31.2595 204.624Z" fill="url(#paint3_linear_9_381)"/>
<path d="M-37.0625 207.937C-34.2905 215.432 -31.5811 222.943 -28.7342 230.416C-20.2889 252.589 -11.1549 274.516 -0.966266 296.065C5.25179 309.213 11.7603 322.216 18.4986 335.12C26.7011 350.859 35.52 366.253 44.6715 381.431C54.011 396.919 63.8809 412.084 74.1853 426.942C88.0882 446.988 102.674 466.439 118.056 485.216C133.574 504.149 149.781 522.352 166.678 539.825C187.89 561.791 210.096 582.527 233.175 601.923C248.246 614.617 263.691 626.666 279.421 638.223C295.596 650.107 312.111 661.308 328.846 671.919C348.844 684.619 369.21 696.332 389.943 707.057C399.523 712.019 409.14 716.899 418.827 721.508C434.556 728.99 450.397 736.063 466.385 742.476C479.19 747.619 492.046 752.454 504.95 756.98C505.931 757.321 506.896 757.857 507.855 758.277L503.71 760.643C493.088 756.621 482.447 752.709 471.854 748.544C448.923 739.546 426.246 729.426 403.823 718.185C374.412 703.536 345.569 687.027 317.459 668.751C282.894 646.285 249.599 621.057 217.895 593.311C192.97 571.488 169.123 548.104 146.508 523.31C126.702 501.64 107.928 478.868 90.2895 455.121C77.5047 437.862 65.2123 420.243 53.6473 402.05C42.8033 384.975 32.3229 367.7 22.6146 349.958C11.1645 329.036 0.531111 307.718 -9.2856 286.005C-20.3074 261.621 -30.2533 236.825 -39.0835 211.714C-39.3341 210.996 -39.6678 210.305 -39.9757 209.573L-37.0625 207.937Z" fill="url(#paint4_linear_9_381)"/>
<path d="M-43.2811 211.485C-40.5969 219.395 -37.9279 227.307 -35.2325 235.217C-28.251 255.615 -20.5885 275.811 -12.0567 295.729C-4.5043 313.372 3.54938 330.808 12.1043 348.038C23.2944 370.533 35.4684 392.48 48.3985 414.009C58.8458 431.409 70.0123 448.346 81.5996 464.989C101.734 493.843 123.423 521.465 146.516 547.668C169.291 573.546 193.39 597.98 218.65 620.807C245.017 644.645 272.506 666.803 300.943 687.141C331.808 709.161 363.663 729.093 396.294 746.804C411.447 755.059 426.733 762.872 442.215 770.018C449.829 773.537 457.471 776.961 465.096 780.421C465.742 780.715 466.424 780.948 466.82 781.709L463.09 783.839C455.581 780.312 448.04 776.844 440.535 773.276C428.256 767.438 416.059 761.316 403.942 754.909C385.758 745.33 367.822 735.06 350.135 724.098C320.948 706.058 292.544 686.163 265.095 664.533C248.311 651.284 231.925 637.412 215.937 622.918C187.155 596.804 159.872 568.636 134.32 538.653C118.352 519.899 103.061 500.552 88.5526 480.494C78.0862 466.007 67.9578 451.294 58.3228 436.193C47.2035 418.733 36.4433 401.054 26.5286 382.873C17.0764 365.542 7.99501 348.031 -0.380837 330.178C-11.5955 306.272 -21.7612 281.98 -31.0136 257.371C-36.5136 242.746 -41.3324 227.938 -46.1996 213.151L-43.2811 211.485Z" fill="url(#paint5_linear_9_381)"/>
<path d="M-49.9137 215.27C-45.7983 229.347 -41.6176 243.413 -36.973 257.386C-29.6663 279.388 -21.5491 301.15 -12.6215 322.673C-4.99074 341.102 3.22873 359.3 12.0369 377.269C24.6947 403.174 38.7733 428.401 53.7026 453.095C68.0158 476.678 83.3671 499.59 99.6896 521.73C120.703 550.384 143.208 577.772 167.059 603.718C188.266 626.781 210.464 648.703 233.546 669.38C257.915 691.21 283.194 711.667 309.256 730.652C325.386 742.41 341.831 753.505 358.496 764.169C379.25 777.422 400.4 789.569 421.738 801.217C423.527 802.184 425.551 802.639 427.015 804.454L423.699 806.346C412.949 800.357 402.143 794.511 391.428 788.322C372.559 777.421 353.984 765.792 335.703 753.438C312.766 737.958 290.389 721.412 268.573 703.8C245.176 684.904 222.545 664.76 200.782 643.461C192.37 635.213 184.092 626.807 175.948 618.244C156.186 597.544 137.31 575.837 119.405 553.222C107.454 538.137 95.9082 522.703 84.8787 506.834C72.101 488.445 59.8969 469.671 48.2664 450.513C38.4015 434.278 29.171 417.681 20.3156 400.923C8.72927 378.985 -1.85645 356.595 -11.5894 333.831C-23.8816 305.114 -34.7387 275.895 -44.1056 246.323C-47.1951 236.558 -50.1733 226.775 -52.8238 216.931L-49.9137 215.27Z" fill="url(#paint6_linear_9_381)"/>
<path d="M-57.3758 219.529C-55.2552 227.462 -53.161 235.397 -51.0098 243.326C-44.0951 268.779 -35.9851 293.966 -26.9212 318.947C-19.5204 339.358 -11.371 359.52 -2.57845 379.462C2.50525 390.998 7.97686 402.386 13.4373 413.773C26.2081 440.415 40.8049 466.068 55.7943 491.503C63.0995 503.899 71.0308 515.85 78.95 527.829C89.5144 543.797 100.56 559.385 112.011 574.655C125.187 592.22 138.913 609.282 153.189 625.84C165.908 640.605 178.96 655 192.427 668.948C205.894 682.895 219.696 696.399 233.84 709.463C253.231 727.39 273.193 744.436 293.724 760.599C320.962 782.058 349.059 801.96 377.877 820.207L388.057 826.661L384.326 828.791C379.041 824.664 373.318 821.53 367.797 817.943C343.057 801.853 318.892 784.609 295.301 766.212C266.528 743.769 238.793 719.558 212.262 693.725C194.925 676.829 178.158 659.25 161.961 640.989C150.261 627.788 138.795 614.303 127.755 600.448C116.354 586.143 105.274 571.536 94.6623 556.582C85.8106 544.115 77.2066 531.47 68.8503 518.645C64.9356 512.624 61.0167 506.605 57.3242 500.443C48.9936 486.559 40.4832 472.765 32.8267 458.483C23.5975 441.262 14.5426 423.962 6.13497 406.332C-3.54285 386.037 -12.5113 365.476 -20.7704 344.65C-33.0847 313.615 -43.7238 282.067 -52.6257 250.192C-55.3293 240.544 -57.741 230.849 -60.2834 221.175L-57.3758 219.529Z" fill="url(#paint7_linear_9_381)"/>
<path d="M174.98 948.271C169.656 942.477 164.944 936.109 159.997 929.954C148.608 915.775 137.654 901.215 126.895 886.485C115.228 870.536 103.927 854.314 92.9927 837.82C84.1555 824.505 75.5617 811.03 67.2112 797.394C58.3118 782.841 49.4331 768.276 41.2244 753.316C32.7059 737.783 24.266 722.206 16.2672 706.39C9.35421 692.717 2.69333 678.947 -3.79605 665.093C-11.0941 649.513 -17.8783 633.726 -24.4795 617.875C-33.7938 595.488 -42.3287 572.869 -50.2562 550.062C-58.9052 525.182 -66.6127 500.103 -73.526 474.855C-79.572 452.796 -84.9118 430.646 -89.5455 408.404C-94.3674 385.351 -98.4216 362.266 -101.708 339.149C-105.486 312.702 -108.119 286.317 -109.81 259.983C-110.031 256.591 -110.219 253.2 -110.418 249.809L-107.102 247.916C-106.298 259.291 -105.601 270.661 -104.661 282.044C-101.954 314.392 -97.6383 346.837 -91.7342 379.234C-84.0171 421.751 -73.7616 464.105 -61.0369 506.011C-52.2914 534.95 -42.2943 563.56 -31.306 591.942C-24.3147 609.969 -16.9379 627.882 -9.00132 645.582C-0.904251 663.621 7.46438 681.558 16.431 699.233C22.1503 710.506 28.0535 721.687 33.9443 732.876C42.5677 749.256 51.8073 765.291 61.2665 781.181C70.275 796.324 79.6036 811.272 89.2521 826.027C98.8408 840.684 108.669 855.16 118.736 869.455C132.272 888.683 146.435 907.395 160.981 925.775C166.537 932.794 172.041 939.877 177.904 946.595L174.98 948.271Z" fill="url(#paint8_linear_9_381)"/>
<path d="M-65.6667 224.261C-63.8868 227.274 -63.8631 230.58 -63.1605 233.737C-56.5672 263.552 -48.5226 293.206 -39.0634 322.564C-30.0525 350.56 -19.756 378.244 -8.21725 405.499C-1.32921 421.757 6.00289 437.801 13.7349 453.756C25.811 478.754 38.9481 503.26 53.0956 527.18C63.1569 544.144 73.6491 560.843 84.6534 577.216C98.4899 597.81 112.893 617.875 128.04 637.377C146.528 661.17 165.968 684.096 186.286 706.065C200.95 721.927 216.001 737.322 231.512 752.144C248.44 768.323 265.771 783.967 283.638 798.816C292.088 805.84 300.57 812.806 309.167 819.588C321.184 829.088 333.361 838.339 345.719 847.234C346.627 847.862 347.6 848.373 348.277 849.365L344.96 851.258C338.678 846.528 332.377 841.815 326.11 837.064C298.089 815.845 270.865 793.384 244.689 769.185C224.815 750.811 205.508 731.742 186.928 711.755C170.558 694.153 154.733 675.955 139.453 657.161C129.008 644.292 118.859 631.17 109.006 617.795C100.351 606.03 92.0249 594.013 83.7689 581.935C64.2975 553.432 46.8576 523.684 30.2408 493.433C21.898 478.237 14.2593 462.686 6.79202 447.051C-4.80216 422.778 -15.3086 398.111 -24.8854 373.098C-37.4406 340.246 -48.196 306.88 -57.087 273.199C-61.0268 258.313 -64.5299 243.384 -67.798 228.432C-67.9997 227.521 -68.0568 226.592 -68.1763 225.68L-65.6667 224.261Z" fill="url(#paint9_linear_9_381)"/>
<path d="M-95.0994 241.059C-93.9078 244.639 -94.0768 248.214 -93.7057 251.773C-90.0537 287.014 -84.4599 322.322 -76.9555 357.502C-69.57 392.111 -60.4245 426.542 -49.5645 460.623C-40.4256 489.298 -30.1024 517.622 -18.7331 545.66C-11.8536 562.625 -4.46963 579.415 3.2701 596.048C12.2731 615.385 21.7285 634.504 31.8677 653.319C38.9119 666.393 45.7184 679.61 53.3388 692.355C64.1546 710.439 75.0214 728.488 86.5098 746.161C100.805 768.159 115.753 789.647 131.353 810.626C158.593 847.251 187.728 882.238 218.57 915.362C220.179 917.094 222.015 918.578 223.064 920.821L220.577 922.241C214.798 916.554 209.428 910.409 203.941 904.377C185.077 883.506 166.944 861.885 149.441 839.7C135.444 821.98 121.937 803.848 108.921 785.304C97.8536 769.494 87.1269 753.431 76.7407 737.114C62.2934 714.496 48.7619 691.336 35.7956 667.847C27.2841 652.423 19.2731 636.74 11.522 620.916C-0.224153 596.935 -11.2 572.668 -21.2856 548.025C-29.2408 528.597 -36.6653 509.015 -43.559 489.278C-52.096 464.851 -59.7304 440.24 -66.4621 415.445C-73.3766 389.907 -79.3188 364.255 -84.2887 338.49C-89.9102 309.228 -94.2409 279.964 -97.2808 250.699C-97.5619 248.03 -97.7621 245.368 -97.9987 242.701L-95.0994 241.059Z" fill="url(#paint10_linear_9_381)"/>
<path d="M-83.9068 234.671C-81.5369 251.062 -79.1225 267.455 -76.041 283.851C-71.6654 307.194 -66.5033 330.519 -60.4417 353.735C-55.5095 372.649 -50.0552 391.456 -44.0787 410.158C-38.7232 426.872 -32.9361 443.473 -26.7176 459.961C-20.7966 475.65 -14.6137 491.25 -7.96934 506.686C-2.16139 520.194 3.9873 533.568 10.2689 546.885C17.6185 562.468 25.4785 577.8 33.5556 593.021C39.8896 604.957 46.8128 616.596 53.4356 628.374C62.6065 644.674 72.4738 660.576 82.634 676.212C99.1712 701.669 116.629 726.407 135.008 750.425C163.317 787.406 193.641 822.569 225.763 855.66C238.667 868.954 251.827 881.915 265.244 894.542C265.72 894.992 266.152 895.507 266.617 895.984L263.715 897.64C251.739 886.672 240.171 875.166 228.729 863.515C209.266 843.702 190.46 823.166 172.31 801.907C157.284 784.245 142.656 766.203 128.644 747.603C114.406 728.703 100.633 709.444 87.5689 689.615C77.6716 674.585 68.1031 659.36 58.7359 643.987C47.5212 625.647 37.1333 606.868 27.0951 587.903C12.6544 560.555 -0.605909 532.628 -12.6338 504.233C-27.1158 470.228 -39.816 435.608 -50.6637 400.565C-62.9476 360.986 -72.7633 320.94 -80.0363 280.731C-82.5299 266.835 -84.7542 252.936 -86.7094 239.034C-86.8264 238.212 -87.0283 237.387 -87.1926 236.56L-83.9068 234.671Z" fill="url(#paint11_linear_9_381)"/>
<path d="M-74.3724 229.229C-73.5793 230.215 -73.6488 231.354 -73.4587 232.438C-67.3648 267.326 -59.28 302.106 -49.254 336.563C-41.3827 363.663 -32.3651 390.479 -22.2011 417.012C-14.1823 437.918 -5.51493 458.593 3.90776 479.003C11.2033 494.81 18.9123 510.407 26.8084 525.936C37.1105 546.202 48.3097 565.969 59.9936 585.439C72.2047 605.795 85.1614 625.685 98.6949 645.18C116.142 670.339 134.541 694.679 153.89 718.201C173.319 741.8 193.616 764.476 214.78 786.228C237.06 809.159 260.138 830.994 284.014 851.733C291.425 858.171 298.945 864.414 306.436 870.74C306.997 871.222 307.508 871.791 308.043 872.314L305.141 873.97C294.447 865.623 284.211 856.557 273.966 847.503C247.436 824.06 221.901 799.188 197.483 773.003C175.985 749.935 155.408 725.917 135.751 700.95C120.943 682.143 106.743 662.861 93.1513 643.103C84.972 631.211 77.056 619.129 69.4035 606.857C58.6839 589.712 48.1302 572.472 38.3775 554.749C30.2674 539.97 22.3243 525.09 14.885 509.975C5.67041 491.262 -3.0147 472.331 -11.1704 453.181C-30.3776 408.088 -46.302 361.887 -58.7735 315.069C-66.1103 287.693 -72.1738 260.14 -76.9388 232.523C-77.0354 231.969 -77.1667 231.421 -77.2827 230.871L-74.3724 229.229Z" fill="url(#paint12_linear_9_381)"/>
<path d="M-67.8897 595.913C-69.5253 589.041 -72.016 582.366 -74.0378 575.569C-81.3585 550.984 -88.1317 526.319 -94.0199 501.5C-100.482 474.29 -105.946 447.02 -110.412 419.691C-114.48 395.019 -117.656 370.362 -119.941 345.72C-122.607 317.226 -124.202 288.837 -124.343 260.626C-124.348 259.721 -124.461 258.791 -124.521 257.878L-121.204 255.985C-120.484 261.888 -120.845 267.64 -120.684 273.459C-120.153 293.006 -119.117 312.604 -117.576 332.251C-115.339 360.283 -111.962 388.348 -107.444 416.447C-102.975 444.454 -97.4388 472.39 -90.8355 500.252C-85.4811 522.971 -79.4026 545.581 -72.7308 568.104C-68.7493 581.541 -64.4305 594.906 -60.1033 608.265C-59.9005 608.983 -59.735 609.707 -59.6075 610.434L-67.8897 595.913Z" fill="url(#paint13_linear_9_381)"/>
<defs>
<linearGradient id="paint0_linear_9_381" x1="494.002" y1="328.578" x2="161.244" y2="518.493" gradientUnits="userSpaceOnUse">
<stop offset="0.296875" stop-color="#BD00FF" stop-opacity="0"/>
<stop offset="1" stop-color="#3B2CFF" stop-opacity="0.58"/>
</linearGradient>
<linearGradient id="paint1_linear_9_381" x1="462.567" y1="353.452" x2="157.754" y2="527.418" gradientUnits="userSpaceOnUse">
<stop offset="0.296875" stop-color="#BD00FF" stop-opacity="0"/>
<stop offset="1" stop-color="#3B2CFF" stop-opacity="0.58"/>
</linearGradient>
<linearGradient id="paint2_linear_9_381" x1="410.736" y1="383.041" x2="150.299" y2="531.681" gradientUnits="userSpaceOnUse">
<stop offset="0.296875" stop-color="#BD00FF" stop-opacity="0"/>
<stop offset="1" stop-color="#3B2CFF" stop-opacity="0.58"/>
</linearGradient>
<linearGradient id="paint3_linear_9_381" x1="365.162" y1="409.065" x2="141.914" y2="536.479" gradientUnits="userSpaceOnUse">
<stop offset="0.296875" stop-color="#BD00FF" stop-opacity="0"/>
<stop offset="1" stop-color="#3B2CFF" stop-opacity="0.58"/>
</linearGradient>
<linearGradient id="paint4_linear_9_381" x1="322.446" y1="433.412" x2="132.111" y2="542.042" gradientUnits="userSpaceOnUse">
<stop offset="0.296875" stop-color="#BD00FF" stop-opacity="0"/>
<stop offset="1" stop-color="#3B2CFF" stop-opacity="0.58"/>
</linearGradient>
<linearGradient id="paint5_linear_9_381" x1="281.415" y1="456.849" x2="120.889" y2="548.465" gradientUnits="userSpaceOnUse">
<stop offset="0.296875" stop-color="#BD00FF" stop-opacity="0"/>
<stop offset="1" stop-color="#3B2CFF" stop-opacity="0.58"/>
</linearGradient>
<linearGradient id="paint6_linear_9_381" x1="241.602" y1="479.584" x2="108.028" y2="555.819" gradientUnits="userSpaceOnUse">
<stop offset="0.296875" stop-color="#BD00FF" stop-opacity="0"/>
<stop offset="1" stop-color="#3B2CFF" stop-opacity="0.58"/>
</linearGradient>
<linearGradient id="paint7_linear_9_381" x1="202.647" y1="501.797" x2="93.0622" y2="564.34" gradientUnits="userSpaceOnUse">
<stop offset="0.296875" stop-color="#BD00FF" stop-opacity="0"/>
<stop offset="1" stop-color="#3B2CFF" stop-opacity="0.58"/>
</linearGradient>
<linearGradient id="paint8_linear_9_381" x1="78.3038" y1="572.773" x2="-27.4624" y2="633.137" gradientUnits="userSpaceOnUse">
<stop offset="0.296875" stop-color="#BD00FF" stop-opacity="0"/>
<stop offset="1" stop-color="#3B2CFF" stop-opacity="0.58"/>
</linearGradient>
<linearGradient id="paint9_linear_9_381" x1="162.867" y1="524.5" x2="76.0111" y2="574.072" gradientUnits="userSpaceOnUse">
<stop offset="0.296875" stop-color="#BD00FF" stop-opacity="0"/>
<stop offset="1" stop-color="#3B2CFF" stop-opacity="0.58"/>
</linearGradient>
<linearGradient id="paint10_linear_9_381" x1="90.3033" y1="565.911" x2="5.16732" y2="614.501" gradientUnits="userSpaceOnUse">
<stop offset="0.296875" stop-color="#BD00FF" stop-opacity="0"/>
<stop offset="1" stop-color="#3B2CFF" stop-opacity="0.58"/>
</linearGradient>
<linearGradient id="paint11_linear_9_381" x1="101.503" y1="559.536" x2="32.5706" y2="598.878" gradientUnits="userSpaceOnUse">
<stop offset="0.296875" stop-color="#BD00FF" stop-opacity="0"/>
<stop offset="1" stop-color="#3B2CFF" stop-opacity="0.58"/>
</linearGradient>
<linearGradient id="paint12_linear_9_381" x1="122.635" y1="547.452" x2="55.8659" y2="585.559" gradientUnits="userSpaceOnUse">
<stop offset="0.296875" stop-color="#BD00FF" stop-opacity="0"/>
<stop offset="1" stop-color="#3B2CFF" stop-opacity="0.58"/>
</linearGradient>
<linearGradient id="paint13_linear_9_381" x1="-37.3419" y1="402.924" x2="-143.47" y2="463.495" gradientUnits="userSpaceOnUse">
<stop offset="0.296875" stop-color="#BD00FF" stop-opacity="0"/>
<stop offset="1" stop-color="#3B2CFF" stop-opacity="0.58"/>
</linearGradient>
</defs>
</svg>
