<svg width="450" height="900" viewBox="0 0 450 900" fill="none" xmlns="http://www.w3.org/2000/svg">
<path d="M450 490.737C472.499 490.737 490.737 472.499 490.737 450C490.737 427.501 472.499 409.263 450 409.263C427.501 409.263 409.263 427.501 409.263 450C409.263 472.499 427.501 490.737 450 490.737Z" stroke="url(#paint0_linear_9_194)" stroke-width="5" stroke-miterlimit="10"/>
<path d="M450 519.786C488.542 519.786 519.786 488.542 519.786 450C519.786 411.458 488.542 380.214 450 380.214C411.458 380.214 380.214 411.458 380.214 450C380.214 488.542 411.458 519.786 450 519.786Z" stroke="url(#paint1_linear_9_194)" stroke-width="5" stroke-miterlimit="10"/>
<path d="M450 792.056C638.913 792.056 792.056 638.913 792.056 450C792.056 261.088 638.913 107.944 450 107.944C261.088 107.944 107.944 261.088 107.944 450C107.944 638.913 261.088 792.056 450 792.056Z" stroke="url(#paint2_linear_9_194)" stroke-width="5" stroke-miterlimit="10"/>
<path d="M450 759.688C621.036 759.688 759.688 621.036 759.688 450C759.688 278.964 621.036 140.312 450 140.312C278.964 140.312 140.312 278.964 140.312 450C140.312 621.036 278.964 759.688 450 759.688Z" stroke="url(#paint3_linear_9_194)" stroke-width="5" stroke-miterlimit="10"/>
<path d="M450 731.128C605.263 731.128 731.128 605.263 731.128 450C731.128 294.737 605.263 168.871 450 168.871C294.737 168.871 168.871 294.737 168.871 450C168.871 605.263 294.737 731.128 450 731.128Z" stroke="url(#paint4_linear_9_194)" stroke-width="5" stroke-miterlimit="10"/>
<path d="M450 699.911C588.022 699.911 699.911 588.022 699.911 450C699.911 311.978 588.022 200.089 450 200.089C311.978 200.089 200.089 311.978 200.089 450C200.089 588.022 311.978 699.911 450 699.911Z" stroke="url(#paint5_linear_9_194)" stroke-width="5" stroke-miterlimit="10"/>
<path d="M450 666.393C569.51 666.393 666.393 569.511 666.393 450C666.393 330.489 569.51 233.607 450 233.607C330.489 233.607 233.607 330.489 233.607 450C233.607 569.511 330.489 666.393 450 666.393Z" stroke="url(#paint6_linear_9_194)" stroke-width="5" stroke-miterlimit="10"/>
<path d="M450 635.929C552.686 635.929 635.929 552.686 635.929 450C635.929 347.314 552.686 264.071 450 264.071C347.314 264.071 264.071 347.314 264.071 450C264.071 552.686 347.314 635.929 450 635.929Z" stroke="url(#paint7_linear_9_194)" stroke-width="5" stroke-miterlimit="10"/>
<path d="M450 607.37C536.913 607.37 607.37 536.913 607.37 450C607.37 363.087 536.913 292.63 450 292.63C363.087 292.63 292.63 363.087 292.63 450C292.63 536.913 363.087 607.37 450 607.37Z" stroke="url(#paint8_linear_9_194)" stroke-width="5" stroke-miterlimit="10"/>
<path d="M450 579.246C521.381 579.246 579.246 521.381 579.246 450C579.246 378.619 521.381 320.754 450 320.754C378.619 320.754 320.754 378.619 320.754 450C320.754 521.381 378.619 579.246 450 579.246Z" stroke="url(#paint9_linear_9_194)" stroke-width="5" stroke-miterlimit="10"/>
<path d="M450 550.25C505.367 550.25 550.25 505.367 550.25 450C550.25 394.633 505.367 349.75 450 349.75C394.633 349.75 349.75 394.633 349.75 450C349.75 505.367 394.633 550.25 450 550.25Z" stroke="url(#paint10_linear_9_194)" stroke-width="5" stroke-miterlimit="10"/>
<path d="M450 897C696.871 897 897 696.871 897 450C897 203.129 696.871 3 450 3C203.129 3 3 203.129 3 450C3 696.871 203.129 897 450 897Z" stroke="url(#paint11_linear_9_194)" stroke-width="5" stroke-miterlimit="10"/>
<path d="M450 858.92C675.841 858.92 858.92 675.84 858.92 450C858.92 224.16 675.841 41.0797 450 41.0797C224.16 41.0797 41.0798 224.16 41.0798 450C41.0798 675.84 224.16 858.92 450 858.92Z" stroke="url(#paint12_linear_9_194)" stroke-width="5" stroke-miterlimit="10"/>
<path d="M450 824.648C656.913 824.648 824.648 656.913 824.648 450C824.648 243.087 656.913 75.3513 450 75.3513C243.087 75.3513 75.3513 243.087 75.3513 450C75.3513 656.913 243.087 824.648 450 824.648Z" stroke="url(#paint13_linear_9_194)" stroke-width="5" stroke-miterlimit="10"/>
<defs>
<linearGradient id="paint0_linear_9_194" x1="450" y1="409.263" x2="450" y2="490.737" gradientUnits="userSpaceOnUse">
<stop stop-color="#000AFF" stop-opacity="0"/>
<stop offset="0.609375" stop-color="#BD00FF" stop-opacity="0.38"/>
<stop offset="1" stop-color="#00FFA3" stop-opacity="0.01"/>
</linearGradient>
<linearGradient id="paint1_linear_9_194" x1="450" y1="380.214" x2="450" y2="519.786" gradientUnits="userSpaceOnUse">
<stop stop-color="#000AFF" stop-opacity="0"/>
<stop offset="0.609375" stop-color="#BD00FF" stop-opacity="0.38"/>
<stop offset="1" stop-color="#00FFA3" stop-opacity="0.01"/>
</linearGradient>
<linearGradient id="paint2_linear_9_194" x1="450" y1="107.944" x2="450" y2="792.056" gradientUnits="userSpaceOnUse">
<stop stop-color="#000AFF" stop-opacity="0"/>
<stop offset="0.609375" stop-color="#BD00FF" stop-opacity="0.38"/>
<stop offset="1" stop-color="#00FFA3" stop-opacity="0.01"/>
</linearGradient>
<linearGradient id="paint3_linear_9_194" x1="450" y1="140.312" x2="450" y2="759.688" gradientUnits="userSpaceOnUse">
<stop stop-color="#000AFF" stop-opacity="0"/>
<stop offset="0.609375" stop-color="#BD00FF" stop-opacity="0.38"/>
<stop offset="1" stop-color="#00FFA3" stop-opacity="0.01"/>
</linearGradient>
<linearGradient id="paint4_linear_9_194" x1="450" y1="168.871" x2="450" y2="731.128" gradientUnits="userSpaceOnUse">
<stop stop-color="#000AFF" stop-opacity="0"/>
<stop offset="0.609375" stop-color="#BD00FF" stop-opacity="0.38"/>
<stop offset="1" stop-color="#00FFA3" stop-opacity="0.01"/>
</linearGradient>
<linearGradient id="paint5_linear_9_194" x1="450" y1="200.089" x2="450" y2="699.911" gradientUnits="userSpaceOnUse">
<stop stop-color="#000AFF" stop-opacity="0"/>
<stop offset="0.609375" stop-color="#BD00FF" stop-opacity="0.38"/>
<stop offset="1" stop-color="#00FFA3" stop-opacity="0.01"/>
</linearGradient>
<linearGradient id="paint6_linear_9_194" x1="450" y1="233.607" x2="450" y2="666.393" gradientUnits="userSpaceOnUse">
<stop stop-color="#000AFF" stop-opacity="0"/>
<stop offset="0.609375" stop-color="#BD00FF" stop-opacity="0.38"/>
<stop offset="1" stop-color="#00FFA3" stop-opacity="0.01"/>
</linearGradient>
<linearGradient id="paint7_linear_9_194" x1="450" y1="264.071" x2="450" y2="635.929" gradientUnits="userSpaceOnUse">
<stop stop-color="#000AFF" stop-opacity="0"/>
<stop offset="0.609375" stop-color="#BD00FF" stop-opacity="0.38"/>
<stop offset="1" stop-color="#00FFA3" stop-opacity="0.01"/>
</linearGradient>
<linearGradient id="paint8_linear_9_194" x1="450" y1="292.63" x2="450" y2="607.37" gradientUnits="userSpaceOnUse">
<stop stop-color="#000AFF" stop-opacity="0"/>
<stop offset="0.609375" stop-color="#BD00FF" stop-opacity="0.38"/>
<stop offset="1" stop-color="#00FFA3" stop-opacity="0.01"/>
</linearGradient>
<linearGradient id="paint9_linear_9_194" x1="450" y1="320.754" x2="450" y2="579.246" gradientUnits="userSpaceOnUse">
<stop stop-color="#000AFF" stop-opacity="0"/>
<stop offset="0.609375" stop-color="#BD00FF" stop-opacity="0.38"/>
<stop offset="1" stop-color="#00FFA3" stop-opacity="0.01"/>
</linearGradient>
<linearGradient id="paint10_linear_9_194" x1="450" y1="349.75" x2="450" y2="550.25" gradientUnits="userSpaceOnUse">
<stop stop-color="#000AFF" stop-opacity="0"/>
<stop offset="0.609375" stop-color="#BD00FF" stop-opacity="0.38"/>
<stop offset="1" stop-color="#00FFA3" stop-opacity="0.01"/>
</linearGradient>
<linearGradient id="paint11_linear_9_194" x1="450" y1="3" x2="450" y2="897" gradientUnits="userSpaceOnUse">
<stop stop-color="#000AFF" stop-opacity="0"/>
<stop offset="0.609375" stop-color="#BD00FF" stop-opacity="0.38"/>
<stop offset="1" stop-color="#00FFA3" stop-opacity="0.01"/>
</linearGradient>
<linearGradient id="paint12_linear_9_194" x1="450" y1="41.0797" x2="450" y2="858.92" gradientUnits="userSpaceOnUse">
<stop stop-color="#000AFF" stop-opacity="0"/>
<stop offset="0.609375" stop-color="#BD00FF" stop-opacity="0.38"/>
<stop offset="1" stop-color="#00FFA3" stop-opacity="0.01"/>
</linearGradient>
<linearGradient id="paint13_linear_9_194" x1="450" y1="75.3513" x2="450" y2="824.648" gradientUnits="userSpaceOnUse">
<stop stop-color="#000AFF" stop-opacity="0"/>
<stop offset="0.609375" stop-color="#BD00FF" stop-opacity="0.38"/>
<stop offset="1" stop-color="#00FFA3" stop-opacity="0.01"/>
</linearGradient>
</defs>
</svg>
