<svg width="1440" height="475" viewBox="0 0 1440 475" fill="none" xmlns="http://www.w3.org/2000/svg">
<path d="M-139.338 134.47C-84.7142 122.752 -37.2724 138.344 2.8924 175.104C28.5034 198.539 51.0902 225.282 76.1342 249.285C98.7937 271.398 122.678 292.22 147.675 311.653C169.351 328.039 196.15 336.179 223.279 334.616C237.527 334.644 251.593 331.415 264.402 325.175C277.211 318.935 288.423 309.849 297.182 298.612C309.754 282.094 321.366 264.867 331.96 247.017C361.793 194.968 410.311 156.218 467.67 138.628C482.128 134.065 497.359 132.475 512.447 133.952C527.536 135.43 542.169 139.946 555.466 147.227C581.011 161.266 603.936 179.617 623.226 201.469C646.947 226.983 669.629 253.348 693.349 278.673C704.851 291.202 717.3 302.828 730.585 313.449C772.451 346.145 820.365 347.09 861.758 313.449C879.781 298.643 895.375 281.105 907.971 261.475C927.534 231.047 943.505 198.35 960.705 166.977C977.098 133.938 998.099 103.394 1023.08 76.2596C1044.29 54.5209 1070.13 37.8526 1098.68 27.4988C1115.82 20.7801 1134.29 18.1363 1152.63 19.7763C1170.96 21.4162 1188.67 27.295 1204.34 36.9486C1214.45 42.8074 1224.66 48.6663 1234.49 54.9976C1247.4 63.5096 1261.51 70.0394 1276.35 74.3696C1305.54 82.1069 1336.36 80.9885 1364.91 71.1567C1411.31 54.3369 1454.78 30.3247 1493.72 0V5.48084C1442.97 39.2165 1385.22 74.8421 1323.61 84.2918C1286.47 90.0562 1254.15 75.6926 1222.2 58.872C1204.22 48.5772 1185.01 40.6071 1165.03 35.1531C1117.77 24.5693 1077.33 41.9569 1040.66 70.1172C1014.34 91.2637 992.47 117.406 976.299 147.038C957.398 179.451 940.67 213.187 922.525 245.41C905.798 275.555 887.464 304.66 859.49 326.111C817.246 358.618 770.182 358.902 728.316 326.111C715.875 316.254 704.158 305.517 693.255 293.982C672.936 272.626 653.563 250.513 633.527 228.873C611.595 203.168 585.954 180.874 557.451 162.725C542.323 153.33 525.217 147.585 507.486 145.945C489.754 144.305 471.884 146.815 455.29 153.275C406.51 171.846 365.017 205.647 336.969 249.663C327.519 264.31 317.501 279.335 307.484 293.982C268.925 350.681 209.765 353.61 162.89 328.001C140.846 315.64 120.352 300.699 101.84 283.493C74.8111 258.829 51.1846 230.48 24.0615 205.91C5.24187 188.516 -15.4563 173.271 -37.6505 160.457C-53.0833 152.115 -70.0212 146.924 -87.4788 145.188C-104.936 143.453 -122.565 145.206 -139.338 150.346V134.47Z" fill="url(#paint0_linear_9_11)"/>
<path d="M1437.67 43.5627C1456.58 32.5065 1475.48 20.5053 1494.38 8.59863V14.174C1494.38 14.174 1488.99 17.5759 1486.82 18.8044C1472.45 27.2146 1458.47 36.6644 1443.72 44.7912C1415.63 61.4917 1385.94 75.3264 1355.08 86.0866C1349.12 87.994 1343.06 89.5713 1336.93 90.8115C1317.35 95.112 1297.07 95.112 1277.49 90.8115C1254.23 84.4551 1231.38 76.692 1209.07 67.5651C1185.67 57.4944 1160.34 52.7186 1134.88 53.5795C1113.05 55.0384 1091.75 60.9073 1072.26 70.8312C1052.77 80.7551 1035.49 94.528 1021.47 111.318C1000.81 136.295 982.012 162.763 965.242 190.507C944.545 223.392 926.967 258.261 906.554 291.335C890.357 318.302 867.599 340.733 840.4 356.539C826.325 365.651 809.915 370.499 793.147 370.499C776.38 370.499 759.97 365.651 745.895 356.539C728.954 345.824 713.125 333.447 698.642 319.59C670.29 291.713 643.451 261.38 614.154 234.542C593.812 215.509 571.655 198.513 548 183.797C533.468 174.628 516.91 169.161 499.775 167.876C482.64 166.591 465.451 169.527 449.714 176.426C398.02 197.027 358.8 236.81 326.857 281.319C304.459 312.597 278.47 345.577 238.684 353.987C204.662 361.075 169.506 347.467 140.681 328.284C110.543 306.297 82.5118 281.558 56.9495 254.387C31.4538 227.132 1.86493 204.017 -30.7516 185.876C-64.112 169.056 -103.899 162.063 -139.055 174.631L-138.488 160.929C-103.993 148.172 -64.5846 155.259 -31.9802 172.268C-0.112732 190.708 28.6013 214.124 53.0748 241.63C77.4649 269.179 104.462 294.306 133.688 316.661C151.913 330.021 172.595 339.654 194.55 345.01C216.6 350.363 239.785 348.508 260.703 339.718C296.237 323.937 315.044 289.162 336.308 258.923C364.092 219.706 397.264 186.821 442.059 167.449C468.46 154.331 498.85 151.697 527.114 160.078C551.303 167.997 573.374 181.31 591.662 199.011C616.517 222.73 639.576 248.339 664.053 272.436C686.822 296.597 711.129 319.26 736.822 340.285C773.301 367.878 810.158 366.367 848.433 340.947C875.649 322.209 898.056 297.31 913.831 268.278C930.653 239.173 946.341 209.501 962.501 180.017C980.189 144.672 1003.92 112.691 1032.62 85.5197C1076.85 46.7757 1139.6 21.9228 1212.18 59.4383C1225.89 66.6182 1240.03 72.9304 1254.52 78.3378C1269.74 83.9461 1285.63 87.5361 1301.78 89.0161C1334.29 92.418 1367.93 78.3378 1396.28 64.7302C1410.55 58.8713 1424.26 51.406 1437.67 43.5627Z" fill="url(#paint1_linear_9_11)"/>
<path d="M-139.338 322.709V308.723C-126.486 301.636 -114.011 293.509 -100.591 287.65C-86.4338 281.102 -70.8248 278.322 -55.277 279.581C-39.7292 280.839 -24.7702 286.092 -11.8504 294.832C-0.798233 302.049 9.77675 309.972 19.8088 318.551C37.4814 333.293 54.5868 348.885 72.0704 363.815C123.765 407.662 181.886 418.151 244.637 393.015C289.055 375.155 332.055 353.799 375.717 334.143C391.593 327.056 407.659 320.346 423.442 313.165C449.261 301.075 477.52 295.101 506.023 295.707C534.526 296.313 562.506 303.484 587.787 316.661C603.191 324.126 618.501 332.064 633.622 340.191L678.985 364.949C700.437 376.667 723.308 391.409 746.934 402.748C760.374 409.005 774.276 414.218 788.516 418.34C804.667 422.663 821.319 424.824 838.037 424.766C845.906 425.085 853.786 424.642 861.569 423.443C908.822 416.356 946.624 382.431 978.473 347.845C1021.47 301.541 1059.84 250.985 1105.3 207.044C1132.14 181.246 1163.23 156.96 1199.8 151.668C1234.02 146.754 1268.7 158.756 1302.91 154.976C1373.13 147.132 1423.69 76.0701 1493.91 68.0378C1457.76 81.4991 1423.79 100.188 1393.07 123.508C1372.75 138.628 1353.85 156.771 1328.8 163.102C1292.23 172.552 1253.77 154.881 1216.15 158.567C1183.08 161.779 1153.87 181.34 1128.74 203.075C1068.63 255.143 1023.08 322.52 963.824 374.872C935.473 400.102 902.585 422.12 865.16 428.263C849.162 430.658 832.878 430.403 816.963 427.507C800.853 425.223 785.02 421.296 769.71 415.789C741.358 404.922 715.464 388.857 688.624 375.533C650.822 356.634 613.587 337.734 575.218 322.236C533.281 304.407 486.072 303.493 443.477 319.685C424.009 326.867 404.541 334.049 385.262 341.892C339.899 360.791 295.009 380.352 249.079 397.835C216.982 410.8 181.96 414.786 147.769 409.363C109.967 402.843 80.765 381.014 53.2639 357.012C35.4968 341.797 18.1078 325.922 -0.32074 311.558C-35.2878 284.532 -72.4285 283.209 -110.42 305.321C-120.437 311.086 -129.888 317.039 -139.338 322.709Z" fill="url(#paint2_linear_9_11)"/>
<path d="M1493.72 75.5034V81.9293C1454.24 91.9453 1418.98 114.29 1393.07 145.715C1386.71 152.613 1379.75 158.937 1372.28 164.615C1363.89 171.746 1354.05 176.976 1343.45 179.944C1332.84 182.913 1321.72 183.551 1310.85 181.813C1301.9 180.555 1293.05 178.628 1284.39 176.049C1269.29 170.909 1253.29 168.978 1237.41 170.377C1221.53 171.777 1206.11 176.476 1192.15 184.176C1169.51 196.198 1148.4 210.921 1129.3 228.023C1098.59 256.372 1070.62 287.84 1041.79 318.268C1012.97 348.696 983.104 381.298 947.286 406.151C908.917 432.893 866.673 444.895 820.648 434.5C793.109 428.229 766.144 419.663 740.035 408.891C700.532 392.921 662.257 373.927 623.037 357.106C592.692 343.466 560.44 334.543 527.398 330.647C486.572 326.584 448.958 339.341 411.345 352.192C356.438 371.092 301.719 390.653 246.528 408.891C228.741 413.989 210.567 417.623 192.187 419.758C169.917 423.517 147.093 422.325 125.336 416.265C103.58 410.206 83.4253 399.429 66.3056 384.7C44.0023 366.556 22.8331 346.901 0.151764 329.607C-35.1933 302.203 -67.7976 301.258 -105.789 324.505C-117.602 331.875 -128.281 340.947 -139.527 349.168V334.049C-128.187 326.678 -117.224 318.646 -105.505 312.125C-90.2475 302.333 -72.3149 297.544 -54.2061 298.425C-36.0972 299.305 -18.7142 305.812 -4.47891 317.039C4.12109 323.276 12.2485 330.08 20.3759 336.789C39.277 352.759 58.1781 369.485 77.8353 384.605C107.677 407.912 145.179 419.175 182.925 416.167C216.834 413.116 250.092 404.994 281.589 392.07C329.85 373.549 377.985 354.649 425.994 335.372C453.025 324.194 482.053 318.646 511.302 319.069C540.551 319.491 569.406 325.875 596.104 337.829C612.075 344.538 628.141 351.153 643.923 358.429C684.939 377.329 725.387 397.929 766.78 416.356C840.4 449.052 906.648 435.256 965.998 382.337C971.563 377.824 976.893 373.03 981.969 367.973C1009.94 338.175 1037.76 308.314 1065.42 278.39C1093.77 247.773 1121.18 216.683 1155.67 192.869C1193.47 166.883 1233.83 156.299 1279.19 169.434C1296.2 175.072 1314.44 175.82 1331.85 171.593C1349.26 167.366 1365.14 158.334 1377.66 145.526C1409.75 112.685 1449.7 88.5821 1493.72 75.5034Z" fill="url(#paint3_linear_9_11)"/>
<path d="M1493.72 89.1106V95.9144C1472.43 97.9364 1452.63 107.686 1438.05 123.319C1427.78 133.902 1418.1 145.038 1409.04 156.676C1371.8 203.925 1343.45 208.65 1295.63 190.412C1282.58 185.159 1268.58 182.689 1254.52 183.161C1240.46 183.633 1226.65 187.036 1213.98 193.152C1191.21 203.171 1169.96 216.34 1150.85 232.275C1112.2 267.239 1077.04 305.888 1039.33 341.797C1011.83 368.646 982.799 393.887 952.389 417.395C934.675 430.865 914.225 440.29 892.477 445.008C870.729 449.726 848.211 449.623 826.508 444.705C802.404 440.216 778.678 433.897 755.534 425.806C706.958 408.135 659.233 388.007 610.752 370.052C556.883 350.018 502.07 345.105 446.501 363.815C432.514 368.54 418.15 372.225 404.257 376.761C344.329 397.592 283.238 414.915 221.295 428.641C151.928 442.626 90.877 430.719 39.466 379.596C28.0047 368.586 15.8176 358.358 2.98685 348.979C-34.8153 320.63 -66.5691 320.063 -104.749 348.223C-116.846 357.106 -127.809 367.123 -139.338 377.328V361.264C-134.141 357.011 -128.848 352.759 -123.745 348.412C-72.8066 306.077 -36.1384 306.077 14.5165 348.412C23.211 355.688 31.5275 363.343 40.3165 370.619C49.1055 377.895 60.0682 387.062 70.1803 394.905C86.6382 408.077 105.699 417.616 126.109 422.893C146.519 428.17 167.815 429.066 188.596 425.522C220.703 420.787 252.463 413.937 283.668 405.016C338.67 388.479 392.822 369.391 447.257 351.247C493.606 335.895 543.774 336.594 589.677 353.231C614.721 361.642 639.198 372.131 663.864 381.581C709.51 399.346 754.494 419.38 800.991 434.594C857.694 453.493 911.563 441.965 959.099 405.3C976.28 392.291 992.571 378.148 1007.86 362.965C1042.55 328.19 1075.25 291.335 1110.4 257.127C1131.69 236.238 1154.77 217.265 1179.39 200.429C1196.16 188.208 1215.7 180.364 1236.27 177.608C1256.83 174.853 1277.75 177.272 1297.14 184.648C1334 198.066 1365.28 188.9 1391.65 160.078C1402.8 147.794 1413.76 135.225 1425.67 123.602C1443.69 104.593 1467.73 92.4058 1493.72 89.1106Z" fill="url(#paint4_linear_9_11)"/>
<path d="M1493.72 100.828V110.278C1484.59 111.843 1475.76 114.807 1467.54 119.066C1456.48 127.312 1446.42 136.827 1437.58 147.416C1425.01 161.968 1414.62 178.505 1401.67 192.586C1378.14 218.289 1351.58 223.581 1319.26 211.485C1312.93 209.028 1306.69 206.288 1300.36 203.831C1280.17 195.783 1257.93 194.49 1236.95 200.145C1212.18 206.071 1189.19 217.796 1169.85 234.353C1139.6 260.529 1110.69 288.312 1081.67 315.81C1047.08 348.507 1013.82 382.62 977.717 414.088C950.596 439.29 916.121 455.152 879.336 459.352C846.787 461.949 814.053 457.733 783.224 446.973C731.246 429.869 679.93 410.686 628.141 393.015C587.504 379.124 545.921 367.501 502.638 374.115C472.095 379.095 441.938 386.2 412.385 395.377C342.734 415.505 273.367 436.2 200.976 445.556C140.398 453.399 87.0024 441.492 42.1123 398.307C31.0505 388.147 19.3727 378.68 7.14529 369.958C-32.547 340.096 -62.4107 340.38 -101.82 370.808C-109.285 376.572 -115.995 383.282 -122.989 389.708C-129.982 396.133 -134.235 400.669 -139.811 406.15V388.479C-134.897 383.943 -130.36 379.029 -124.879 374.966C-112.212 364.288 -98.8926 354.41 -84.9976 345.388C-73.1839 337.929 -59.3555 334.298 -45.401 334.992C-31.4466 335.685 -18.0464 340.669 -7.03053 349.263C15.4618 365.705 36.7255 383.943 58.3672 401.709C73.4858 415.258 91.2576 425.514 110.553 431.826C129.849 438.138 150.247 440.368 170.451 438.374C210.607 434.401 250.452 427.74 289.717 418.435C346.42 404.166 403.123 385.928 459.827 369.296C497.66 357.636 538.056 357.144 576.163 367.879C613.965 378.746 651.767 392.448 688.908 405.111C729.262 418.813 769.049 434.499 809.969 445.934C836.384 453.892 864.346 455.263 891.412 449.926C918.479 444.589 943.827 432.706 965.242 415.316C982.719 402.126 999.412 387.927 1015.24 372.792C1045.48 343.309 1074.49 312.409 1104.35 282.453C1129.62 255.302 1158.2 231.428 1189.41 211.391C1227.97 188.428 1267.38 181.813 1310.47 199.767C1349.31 215.832 1376.06 207.8 1403.18 175.67C1414.9 161.874 1425.67 147.321 1437.3 133.336C1451.27 115.706 1471.45 104.078 1493.72 100.828Z" fill="url(#paint5_linear_9_11)"/>
<path d="M1493.72 123.131C1482.78 127.566 1472.46 133.378 1463 140.424C1451.91 152.359 1441.59 164.984 1432.1 178.223C1422.17 191.55 1411.34 204.179 1399.68 216.022C1389.82 225.904 1377.09 232.414 1363.31 234.62C1349.53 236.827 1335.4 234.617 1322.95 228.307C1319.17 226.606 1315.29 225.189 1311.6 223.11C1295.14 213.084 1276.17 207.939 1256.9 208.274C1237.62 208.608 1218.84 214.409 1202.73 225C1176.32 240.91 1151.59 259.464 1128.93 280.375C1090.18 316.379 1054.27 355.406 1016.27 392.26C998.799 409.018 980.405 424.792 961.178 439.509C942.031 455.178 919.413 466.038 895.213 471.184C871.012 476.329 845.932 475.61 822.066 469.087C772.073 456.046 723.119 439.226 673.787 424.012C650.349 416.735 627.007 409.176 603.475 401.994C553.292 386.596 499.565 387.157 449.714 403.6C377.539 427.192 303.498 444.642 228.383 455.763C208.536 458.409 188.501 460.015 168.466 460.771C128.378 463.305 88.8907 450.042 58.4616 423.823C43.5297 411.066 28.3144 398.497 12.4374 386.874C-26.4988 358.525 -58.2526 359.092 -95.5823 389.804C-111.176 402.655 -124.785 418.153 -139.338 432.044V415.696C-129.888 406.246 -119.965 395.851 -109.758 386.496C-64.49 345.106 -31.3186 343.783 16.7847 381.299C24.2507 387.158 31.3386 393.394 38.6155 399.348C49.2946 407.853 59.6902 416.641 70.6529 424.673C89.4262 438.658 111.5 447.546 134.728 450.471C176.231 454.544 218.126 451.346 258.53 441.021C319.958 426.847 380.82 410.499 441.587 393.772C488.178 380.732 534.675 373.361 582.211 386.496C610.563 394.339 638.914 403.033 666.699 412.01C713.101 426.941 758.936 443.478 805.622 457.275C870.075 476.174 928.479 461.905 979.04 418.436C997.374 402.75 1015.42 386.496 1032.72 369.676C1068.91 334.333 1103.69 297.385 1140.83 263.082C1160.4 245.321 1181.93 229.849 1205 216.967C1221.12 207.046 1239.58 201.567 1258.5 201.086C1277.42 200.604 1296.14 205.138 1312.74 214.227C1318.83 217.232 1325.15 219.76 1331.64 221.787C1341.29 225.341 1351.7 226.338 1361.85 224.683C1372 223.027 1381.55 218.774 1389.57 212.337C1400.8 203.202 1411.01 192.872 1420 181.531C1430.49 169.152 1438.9 155.449 1449.39 142.692C1460.16 127.876 1476.19 117.735 1494.19 114.343L1493.72 123.131Z" fill="url(#paint6_linear_9_11)"/>
<path d="M774.341 403.976C759.13 399.072 744.663 392.109 731.341 383.281C717.637 373.831 705.257 363.059 692.121 353.136L691.27 352.569C673.409 339.245 655.264 326.11 636.835 313.542C618.407 300.974 599.6 288.973 580.132 277.822C551.78 261.663 521.349 246.921 488.934 247.866C459.637 248.717 432.231 262.23 406.998 276.971C366.739 300.501 328.936 327.717 289.433 352.569C262.31 369.485 232.73 385.549 201.165 387.912C157.598 391.219 116.11 369.012 82.844 340.663C43.5297 307.211 9.41321 263.836 -40.0132 248.622C-56.4353 243.508 -73.7388 241.85 -90.8334 243.753C-107.928 245.656 -124.443 251.078 -139.338 259.678L-137.921 274.609C-106.734 246.26 -56.5516 249.189 -18.7494 268.278C19.0528 287.366 48.5386 319.117 81.0485 346.238C113.558 373.359 152.967 396.983 195.211 394.432C226.492 392.542 255.033 376.477 282.251 360.885L386.207 301.257C413.897 285.287 442.91 269.034 474.097 264.498C519.176 258.072 564.255 276.215 603.002 300.029C641.488 322.817 678.628 347.806 714.235 374.871C747.69 399.535 784.831 417.489 827.642 413.237C846.783 411.183 865.407 405.744 882.644 397.172C920.446 378.273 950.877 347.372 977.15 314.109C1003.42 280.846 1025.63 244.842 1052.75 212.146C1081.96 176.426 1115.13 133.713 1163.61 133.619C1197.91 133.619 1231.94 132.201 1266.24 131.256C1348.08 128.988 1423.22 87.6927 1493.62 46.2083C1410.55 91.3781 1319.73 129.839 1225.89 124.547C1192.24 122.657 1156.99 115.097 1125.71 128.138C1099.44 138.816 1080.63 161.968 1062.96 184.175L969.4 301.919C948.203 331.132 923.297 357.466 895.308 380.257C879.348 392.314 861.315 401.346 842.101 406.906C832.369 409.506 822.305 410.652 812.237 410.308C801.746 410.073 791.314 408.646 781.145 406.055L774.341 403.976Z" fill="url(#paint7_linear_9_11)"/>
<path d="M704.501 355.216C695.051 348.506 685.6 341.419 676.811 334.048C668.022 326.678 658.855 319.118 649.877 311.558C640.899 303.998 632.11 296.438 623.037 289.067C613.965 281.697 604.892 274.515 595.347 267.711C591 264.498 586.558 261.474 582.022 258.261C557.785 240.62 529.459 229.434 499.708 225.754C460.015 222.825 421.741 241.063 389.231 264.026C344.057 295.871 305.31 335.655 256.923 363.248C244.138 370.825 230.025 375.892 215.341 378.179C181.319 382.998 146.824 369.863 118.378 350.491C89.932 331.119 66.1166 305.888 40.6946 282.642C15.2726 259.395 -12.7956 237.755 -45.778 228.117C-76.682 219.062 -109.78 221.101 -139.338 233.881L-138.582 247.678C-109.714 232.92 -76.3546 229.547 -45.1164 238.228C3.17592 251.835 38.6154 291.808 75.9451 325.355C102.974 349.64 133.499 371.847 168.938 379.88C183.766 383.149 199.039 383.884 214.112 382.053C231.22 380.176 247.706 374.562 262.404 365.611C277.809 356.161 292.741 345.388 307.484 334.615C336.969 313.259 365.699 290.768 396.319 270.829C421.688 252.682 451.374 241.506 482.413 238.417C510.011 237.673 537.321 244.191 561.609 257.316C585.704 270.506 608.598 285.779 630.031 302.959L715.086 366.839C739.846 385.739 767.725 401.992 799.101 405.772C823.697 408.39 848.482 403.022 869.791 390.463C896.401 375.051 919.561 354.337 937.835 329.607C962.596 296.722 985.088 261.947 1009.75 229.25C1029.19 203.293 1050.34 178.668 1073.07 155.542C1090.48 137.968 1111.83 124.817 1135.36 117.188C1158.89 109.56 1183.9 107.676 1208.31 111.695C1221.45 113.396 1234.68 113.774 1247.81 115.57C1292.28 121.258 1337.45 114.417 1378.23 95.8199C1409.21 83.4523 1439.47 69.3499 1468.86 53.5795C1475.1 50.083 1487.76 44.1297 1493.91 41.1058V34.6799C1490.36 37.6674 1486.42 40.148 1482.19 42.0507C1462.53 52.0675 1443.06 63.6907 1422.74 72.29C1397.51 82.9682 1372.66 94.4969 1347.14 103.285C1320.93 111.575 1293.23 114.09 1265.96 110.656C1240.44 108.105 1215.02 104.608 1189.5 101.868C1139.7 96.5759 1097.74 113.774 1061.54 147.227C1030.07 176.143 1007.01 211.485 983.292 246.544C961.556 278.673 939.82 311.085 915.343 341.041C900.521 358.109 883.224 372.857 864.026 384.794C851.274 393.273 836.761 398.743 821.584 400.789C806.407 402.836 790.963 401.405 776.42 396.606C750.473 386.564 726.218 372.606 704.501 355.216Z" fill="url(#paint8_linear_9_11)"/>
<path d="M251.347 361.264C235.936 367.827 219.207 370.706 202.488 369.674C182.645 368.216 163.329 362.615 145.785 353.231H144.934C111.763 335.56 85.0176 308.156 58.1781 281.791C31.3385 255.426 3.17595 228.967 -31.5076 214.414C-65.6791 199.978 -103.822 197.939 -139.338 208.65V223.864C-106.817 211.502 -70.9779 211 -38.1229 222.447C-8.01094 234.681 19.3376 252.837 42.3012 275.838C65.0948 298.873 89.1353 320.64 114.314 341.041C139.759 361.505 170.934 373.558 203.528 375.533C223.394 375.775 242.967 370.719 260.231 360.886C266.752 357.106 273.556 352.759 279.794 348.601C286.031 344.443 291.796 339.151 298.033 334.71L303.42 330.457C335.079 303.148 366.077 274.893 398.87 248.906C420.63 231.678 446.483 220.381 473.908 216.115C498.787 212.027 524.317 216.526 546.299 228.872C570.394 242.152 593.399 257.319 615.099 274.231C625.117 282.169 635.04 290.39 644.868 298.801C662.257 313.637 680.119 328.095 697.886 342.647C706.202 349.357 714.046 356.35 722.835 362.492C732.978 370.526 743.685 377.821 754.873 384.321C764.53 389.082 774.711 392.698 785.209 395.094C794.504 397.192 804.069 397.829 813.561 396.984C823.313 396.116 832.875 393.758 841.912 389.991C851.953 385.714 861.467 380.291 870.264 373.832C873.288 371.564 876.407 369.201 879.714 366.839C913.169 339.718 936.418 304.47 959.383 268.845C978.284 240.496 996.429 212.146 1015.52 183.797C1022.58 173.855 1030.28 164.385 1038.58 155.448C1084.7 102.624 1142.53 84.5746 1211.05 96.5758L1261.33 105.364C1288.96 110.061 1317.29 108.609 1344.3 101.112C1356.81 97.3593 1369.08 92.8788 1381.07 87.693C1392.88 82.9681 1404.79 78.2432 1416.41 73.1404C1428.04 68.0375 1438.81 62.0842 1449.77 56.1308C1453.84 53.8629 1480.3 39.7827 1494.19 31.8449V27.5925C1483.23 34.8688 1437.49 60.6667 1429.45 64.5411C1414.33 71.7229 1399.02 78.4322 1383.33 84.4801C1369 90.4769 1354.17 95.2196 1339.01 98.6547C1308.82 104.694 1277.68 104.146 1247.72 97.0482C1226.83 92.0399 1205.85 86.8425 1184.59 83.9131C1158.64 80.0446 1132.13 82.4723 1107.31 90.9913C1082.49 99.5104 1060.09 113.871 1041.98 132.863C1011.74 162.535 990.097 198.444 967.699 233.881C946.53 267.333 925.172 300.785 901.545 332.347C888.924 347.862 873.934 361.288 857.128 372.131C822.255 396.133 784.453 399.063 748.635 375.438C721.802 356.583 696.026 336.267 671.424 314.582C639.859 288.311 610.657 258.828 577.58 234.637C516.435 189.656 464.835 190.695 402.178 233.692C396.122 237.569 390.343 241.863 384.884 246.543C367.873 262.23 350.767 277.822 334.323 293.792C328.464 299.462 323.077 305.699 317.312 311.463C311.547 317.228 303.231 325.449 295.67 331.78C291.985 334.804 288.205 338.206 284.519 341.23C276.594 347.61 268.008 353.122 258.908 357.673L251.347 361.264Z" fill="url(#paint9_linear_9_11)"/>
<path d="M717.07 384.322C699.492 373.361 682.387 361.548 664.242 351.532C632.866 334.238 601.585 316.473 568.98 301.731C547.898 291.635 524.866 286.261 501.492 285.983C478.118 285.706 454.965 290.532 433.648 300.125C403.312 313.544 373.826 328.474 343.679 342.838C306.822 360.131 270.627 379.125 232.541 393.489C209.493 402.527 184.48 405.373 159.99 401.742C135.501 398.111 112.389 388.13 92.9562 372.794C74.0551 358.808 56.1936 342.554 37.765 327.529C22.0771 314.583 6.86165 300.786 -9.96033 289.73C-23.869 280.049 -40.0784 274.193 -56.9637 272.75C-73.8491 271.307 -90.8171 274.328 -106.167 281.509C-117.602 286.234 -128.281 292.754 -139.338 298.424V284.155C-82.6351 250.325 -38.7846 253.443 12.7209 295.116C22.1715 302.96 31.1495 311.843 41.0726 319.686C64.2264 338.585 86.4352 358.619 111.196 374.872C128.965 387.093 149.48 394.73 170.915 397.104C192.35 399.478 214.04 396.516 234.053 388.48C257.21 379.48 279.751 368.969 301.53 357.012C340.182 336.506 377.701 313.922 416.448 293.699C441.338 279.932 469.344 272.78 497.787 272.929C526.23 273.078 554.16 280.522 578.903 294.55C607.255 309.386 633.906 326.017 661.029 342.46C683.899 356.351 700.721 369.392 723.497 383.472C723.497 383.472 766.119 412.483 800.519 415.601C834.919 418.719 864.877 416.451 893.985 399.631C925.31 380.485 952.832 355.722 975.165 326.584C1003.52 291.526 1031.87 255.616 1060.22 220.558C1079.43 196.178 1102.47 175.082 1128.45 158.095C1156.06 139.119 1189.83 131.318 1222.96 136.266C1277.36 145.734 1333.35 135.694 1381.07 107.917C1417.17 87.7887 1455.91 72.3856 1493.53 54.9036V61.7074C1489.52 62.5464 1485.6 63.7484 1481.81 65.2983C1442.97 84.1978 1403.37 102.436 1365.85 123.981C1330.04 145.715 1287.58 153.77 1246.3 146.661C1229.62 143.657 1212.58 143.147 1195.74 145.149C1153.97 150.535 1121.55 174.443 1093.67 203.832C1067.21 232.181 1043.59 262.42 1018.07 290.959C989.719 322.048 962.123 353.327 932.071 382.338C911.073 403.455 883.506 416.788 853.914 420.137C805.527 424.422 757.154 411.762 717.07 384.322Z" fill="url(#paint10_linear_9_11)"/>
<path d="M284.424 339.908C288.943 336.033 293.264 331.933 297.372 327.624C318.635 306.078 337.158 281.792 358.989 260.53C379.951 239.605 403.824 221.813 429.868 207.706H430.624C471.073 186.539 511.71 185.499 550.457 209.124C575.951 225.258 600.098 243.429 622.659 263.46C649.499 286.706 673.787 312.787 700.248 336.412C715.216 349.677 731.347 361.569 748.446 371.943C781.901 392.354 816.018 390.181 849.189 370.053C878.976 350.863 903.864 324.974 921.864 294.455C939.82 266.106 955.697 236.339 974.031 208.273C990.134 182.299 1008.07 157.509 1027.71 134.092C1076 79.3783 1136.49 63.0302 1207.27 81.9298C1219.65 85.2372 1232.03 88.7336 1244.32 92.5135C1247.44 93.5529 1250.55 94.4034 1253.77 95.2539C1297.04 105.266 1342.38 101.16 1383.15 83.5362C1394.49 78.9058 1405.92 74.7479 1416.88 69.2671C1427.85 63.7862 1437.86 57.9273 1447.98 52.163L1471.22 38.9333L1482.85 32.224C1484.08 31.5625 1493.81 25.3257 1493.81 25.3257V19.1833C1452.08 48.4736 1406.38 71.6695 1358.1 88.0721C1318.21 100.708 1275.2 99.3414 1236.19 84.1977C1215.16 75.8734 1193.39 69.5456 1171.17 65.2982C1148.17 61.4729 1124.61 62.8942 1102.24 69.456C1079.87 76.0178 1059.27 87.5503 1041.98 103.192C1014.57 127.632 991.558 156.59 973.936 188.807C955.602 220.085 938.024 251.836 919.407 283.304C904.09 309.904 883.815 333.322 859.679 352.287C816.679 385.173 776.325 387.157 732.947 354.744C708.242 334.885 684.673 313.653 662.352 291.147C640.332 270.547 619.446 248.624 597.143 228.212C585.346 217.735 572.702 208.253 559.341 199.863C540.584 186.837 518.498 179.438 495.679 178.534C472.861 177.63 450.258 183.259 430.53 194.76C392.639 215.795 359.5 244.427 333.189 278.863C325.44 288.312 317.312 297.762 309.374 307.212L291.607 327.057C281.742 337.877 269.738 346.532 256.356 352.476C249.288 355.568 241.905 357.881 234.336 359.375C226.705 360.805 218.945 361.438 211.182 361.265H208.631C186.506 360.397 165.118 353.071 147.108 340.192C122.158 322.143 98.3429 302.393 75.0946 282.076C49.6726 260.152 26.5187 235.583 0.435165 214.51C-17.9163 198.843 -39.8732 187.982 -63.4623 182.901C-87.0514 177.821 -111.533 178.681 -134.708 185.405C-136.503 185.877 -138.204 186.728 -140 187.389V200.997C-116.81 192.265 -91.735 189.764 -67.2765 193.743C-42.818 197.722 -19.83 208.043 -0.604401 223.676C25.2901 243.804 48.1605 267.618 73.1099 288.974C94.6603 308.43 117.283 326.665 140.87 343.594C153.17 352.047 166.769 358.431 181.13 362.493C195.294 366.441 210.091 367.596 224.697 365.895C230.305 365.23 235.862 364.189 241.33 362.777C248.99 360.515 256.351 357.343 263.255 353.327C266.846 351.311 270.343 349.232 273.745 347.09C277.475 344.96 281.044 342.559 284.424 339.908Z" fill="url(#paint11_linear_9_11)"/>
<defs>
<linearGradient id="paint0_linear_9_11" x1="1366.5" y1="128" x2="351.5" y2="768" gradientUnits="userSpaceOnUse">
<stop stop-color="#0C0D11"/>
<stop offset="0.520833" stop-color="#0085FF" stop-opacity="0.22"/>
<stop offset="1" stop-color="#BD00FF" stop-opacity="0.23"/>
</linearGradient>
<linearGradient id="paint1_linear_9_11" x1="1366.5" y1="128" x2="351.5" y2="768" gradientUnits="userSpaceOnUse">
<stop stop-color="#0C0D11"/>
<stop offset="0.520833" stop-color="#0085FF" stop-opacity="0.22"/>
<stop offset="1" stop-color="#BD00FF" stop-opacity="0.23"/>
</linearGradient>
<linearGradient id="paint2_linear_9_11" x1="1366.5" y1="128" x2="351.5" y2="768" gradientUnits="userSpaceOnUse">
<stop stop-color="#0C0D11"/>
<stop offset="0.520833" stop-color="#0085FF" stop-opacity="0.22"/>
<stop offset="1" stop-color="#BD00FF" stop-opacity="0.23"/>
</linearGradient>
<linearGradient id="paint3_linear_9_11" x1="1366.5" y1="128" x2="351.5" y2="768" gradientUnits="userSpaceOnUse">
<stop stop-color="#0C0D11"/>
<stop offset="0.520833" stop-color="#0085FF" stop-opacity="0.22"/>
<stop offset="1" stop-color="#BD00FF" stop-opacity="0.23"/>
</linearGradient>
<linearGradient id="paint4_linear_9_11" x1="1366.5" y1="128" x2="351.5" y2="768" gradientUnits="userSpaceOnUse">
<stop stop-color="#0C0D11"/>
<stop offset="0.520833" stop-color="#0085FF" stop-opacity="0.22"/>
<stop offset="1" stop-color="#BD00FF" stop-opacity="0.23"/>
</linearGradient>
<linearGradient id="paint5_linear_9_11" x1="1366.5" y1="128" x2="351.5" y2="768" gradientUnits="userSpaceOnUse">
<stop stop-color="#0C0D11"/>
<stop offset="0.520833" stop-color="#0085FF" stop-opacity="0.22"/>
<stop offset="1" stop-color="#BD00FF" stop-opacity="0.23"/>
</linearGradient>
<linearGradient id="paint6_linear_9_11" x1="1366.5" y1="128" x2="351.5" y2="768" gradientUnits="userSpaceOnUse">
<stop stop-color="#0C0D11"/>
<stop offset="0.520833" stop-color="#0085FF" stop-opacity="0.22"/>
<stop offset="1" stop-color="#BD00FF" stop-opacity="0.23"/>
</linearGradient>
<linearGradient id="paint7_linear_9_11" x1="1366.5" y1="128" x2="351.5" y2="768" gradientUnits="userSpaceOnUse">
<stop stop-color="#0C0D11"/>
<stop offset="0.520833" stop-color="#0085FF" stop-opacity="0.22"/>
<stop offset="1" stop-color="#BD00FF" stop-opacity="0.23"/>
</linearGradient>
<linearGradient id="paint8_linear_9_11" x1="1366.5" y1="128" x2="351.5" y2="768" gradientUnits="userSpaceOnUse">
<stop stop-color="#0C0D11"/>
<stop offset="0.520833" stop-color="#0085FF" stop-opacity="0.22"/>
<stop offset="1" stop-color="#BD00FF" stop-opacity="0.23"/>
</linearGradient>
<linearGradient id="paint9_linear_9_11" x1="1366.5" y1="128" x2="351.5" y2="768" gradientUnits="userSpaceOnUse">
<stop stop-color="#0C0D11"/>
<stop offset="0.520833" stop-color="#0085FF" stop-opacity="0.22"/>
<stop offset="1" stop-color="#BD00FF" stop-opacity="0.23"/>
</linearGradient>
<linearGradient id="paint10_linear_9_11" x1="1366.5" y1="128" x2="351.5" y2="768" gradientUnits="userSpaceOnUse">
<stop stop-color="#0C0D11"/>
<stop offset="0.520833" stop-color="#0085FF" stop-opacity="0.22"/>
<stop offset="1" stop-color="#BD00FF" stop-opacity="0.23"/>
</linearGradient>
<linearGradient id="paint11_linear_9_11" x1="1366.5" y1="128" x2="351.5" y2="768" gradientUnits="userSpaceOnUse">
<stop stop-color="#0C0D11"/>
<stop offset="0.520833" stop-color="#0085FF" stop-opacity="0.22"/>
<stop offset="1" stop-color="#BD00FF" stop-opacity="0.23"/>
</linearGradient>
</defs>
</svg>
