<svg width="50" height="50" viewBox="0 0 50 50" fill="none" xmlns="http://www.w3.org/2000/svg">
<path d="M6.51079e-05 24.2299C-0.00567998 21.752 0.368816 19.288 1.11042 16.9242C1.17092 16.7305 1.23409 16.5376 1.29995 16.3455C0.266168 20.3667 0.0483088 24.6144 0.81905 28.6948C1.29845 31.2517 2.17382 33.7178 3.41346 36.0036C4.68462 38.3357 6.38577 40.4935 8.3308 42.2971C10.2004 44.0297 12.3205 45.4691 14.6193 46.5666C16.5406 47.4823 18.592 48.1346 20.6807 48.5337C22.177 48.8196 23.6759 48.9343 25.1987 48.9401C25.2262 48.9401 25.2538 48.9401 25.2814 48.9401C25.7408 48.9136 25.7347 49.9954 25.2948 49.9992C22.412 50.0261 19.501 49.3899 16.809 48.3875L16.8021 48.3848C15.0512 47.7329 13.3765 46.8915 11.8078 45.8755C10.7566 45.1929 9.75584 44.4354 8.81324 43.6087C6.77014 41.8204 5.01759 39.7239 3.61868 37.3947C2.58666 35.6699 1.76109 33.8291 1.15905 31.9106C0.387542 29.4489 0.0065741 26.8217 6.51079e-05 24.2299Z" fill="white"/>
<path d="M16.2879 44.0927C16.5055 44.2694 16.3594 44.5599 16.2473 44.752C16.0759 45.0452 15.9539 45.1414 15.6436 44.9375C14.9121 44.4564 14.075 44.1031 13.3285 43.6228C12.4688 43.069 11.6465 42.4589 10.867 41.7964C9.32637 40.4899 7.963 38.9871 6.81156 37.3262C5.28389 35.1181 4.12465 32.6425 3.4425 30.0438C2.77718 27.5064 2.59392 24.7778 2.83457 22.1661C3.06233 19.7295 3.68115 17.3456 4.66716 15.1064C5.64839 12.8655 6.99283 10.8025 8.64606 9.00109C8.86108 8.76805 9.08132 8.53974 9.30679 8.31616C8.84768 8.76997 8.47428 9.37824 8.0894 9.89529C7.68424 10.4396 7.29094 10.9926 6.9183 11.5595C6.17761 12.6864 5.51765 13.8715 5.02641 15.1298C4.17056 17.3218 3.63379 19.5682 3.32198 21.8917C3.31815 21.9261 3.31624 21.9606 3.31624 21.9952C3.30744 22.4229 3.28525 22.8507 3.28793 23.2788C3.29176 23.8798 3.28793 24.4808 3.2952 25.0803C3.30974 26.4455 3.59285 27.8702 3.91767 29.1948C4.25416 30.5681 4.71783 31.907 5.30263 33.194C5.54596 33.7306 5.83634 34.2561 6.12558 34.7705C6.77871 35.9297 7.53415 37.0279 8.38284 38.0521C10.0616 40.0778 12.1815 41.8248 14.4583 43.1333C14.632 43.2333 14.807 43.3306 14.9832 43.4254C15.2794 43.5845 15.5793 43.7504 15.8858 43.8853C16.017 43.9478 16.1788 44.0046 16.2879 44.0927Z" fill="white"/>
<path d="M5.46744 24.3163C5.47472 22.6999 5.58247 21.0932 5.99313 19.5116C6.13768 18.9523 6.30869 18.3995 6.49389 17.852C6.73099 17.1393 7.00827 16.4405 7.32442 15.759C8.20632 13.8711 9.42602 12.1059 10.829 10.5638C10.9568 10.423 11.0875 10.2844 11.2209 10.1479C11.5532 9.80719 11.8992 9.47921 12.2588 9.16397C12.975 8.534 13.7372 7.95817 14.5391 7.44127C15.7278 6.67614 17.1246 6.06786 18.4502 5.58276C18.4502 5.58276 18.01 5.81231 17.8275 5.90068C16.1534 6.7144 14.5564 7.70907 13.1204 8.89886C11.6787 10.0951 10.4456 11.4976 9.41222 13.0551C8.27338 14.7652 7.41207 16.6438 6.86008 18.6218C6.28667 20.7163 6.07645 22.8932 6.23853 25.0585C6.32703 26.2727 6.52622 27.4764 6.83362 28.6546C7.21555 30.1221 7.76409 31.5412 8.46859 32.8846C8.82919 33.5714 9.23126 34.2358 9.67257 34.874C9.92066 35.2324 10.7711 36.2103 10.796 36.4015C10.8286 36.6548 10.3858 36.9632 10.1699 37.0137C10.0039 37.0519 9.78415 36.6957 9.69903 36.5856C8.62791 35.1974 7.73714 33.6795 7.04796 32.0682C6.97127 31.8897 6.89803 31.7104 6.82825 31.5303C6.6828 31.1595 6.54911 30.7845 6.42718 30.4052C6.17037 29.6019 5.96041 28.7843 5.79834 27.9568C5.56715 26.7572 5.4563 25.5377 5.46744 24.3163Z" fill="white"/>
<path d="M37.413 41.6438C37.4099 41.6768 37.3969 41.7079 37.3759 41.7321C37.353 41.7541 37.3282 41.7736 37.3017 41.7904C37.2832 41.804 37.2527 41.8034 37.2464 41.7867C37.242 41.7717 37.241 41.7557 37.2435 41.7402C37.2445 41.7286 37.249 41.7177 37.2564 41.7092C37.2924 41.6704 37.3373 41.6428 37.3865 41.6292C37.3936 41.6283 37.4039 41.6388 37.413 41.6438Z" fill="white"/>
<path d="M49.2271 30.3988C48.6331 32.7326 47.6726 34.9605 46.3806 37.002C46.2745 37.1697 46.1663 37.3357 46.0559 37.5C48.0351 33.9686 49.2754 30.0258 49.511 26.0002C49.6625 23.474 49.4064 20.9402 48.7525 18.493C48.0791 15.9905 46.9463 13.5461 45.4873 11.3779C44.0814 9.28856 42.3652 7.41907 40.3961 5.83192C38.747 4.50347 36.9075 3.39055 34.9703 2.50749C33.5827 1.8748 32.1508 1.40271 30.6714 1.02735C30.6447 1.02038 30.618 1.01226 30.5928 1.00723C30.1393 0.920546 30.4067 -0.0956191 30.8359 0.00731371C33.6491 0.683342 36.3296 1.98974 38.7073 3.58868L38.7136 3.59255C40.2586 4.6297 41.6855 5.82825 42.9694 7.16734C43.8257 8.06413 44.616 9.02004 45.3342 10.0278C46.8876 12.2003 48.087 14.5987 48.8887 17.1363C49.4754 19.0056 49.8337 20.9372 49.9563 22.8901C50.1117 25.3953 49.8495 27.9594 49.2271 30.3988Z" fill="white"/>
<path d="M38.289 7.92457C38.1216 7.7127 38.3299 7.48474 38.4824 7.33725C38.7152 7.11266 38.8547 7.05464 39.1051 7.31367C39.6937 7.9227 40.4154 8.44227 41.0163 9.05391C41.7099 9.7582 42.3558 10.5061 42.95 11.2927C44.1169 12.8342 45.0725 14.5188 45.7923 16.3035C46.7406 18.6655 47.2731 21.1817 47.3186 23.6968C47.3629 26.152 46.8981 28.6648 46.0572 30.9711C45.2651 33.1265 44.1124 35.1379 42.6461 36.9228C41.1714 38.7253 39.3986 40.273 37.4015 41.5016C37.1405 41.6613 36.8758 41.8155 36.6072 41.9643C37.1526 41.6626 37.6545 41.201 38.1449 40.8248C38.6609 40.4288 39.1678 40.0219 39.6578 39.5974C40.6321 38.754 41.543 37.8381 42.309 36.8165C43.643 35.0366 44.6842 33.1313 45.527 31.1028C45.5389 31.0728 45.5489 31.042 45.5568 31.0107C45.6654 30.6256 45.7862 30.2437 45.8848 29.8556C46.0216 29.3109 46.1654 28.7678 46.2999 28.2224C46.6057 26.9834 46.6672 25.6268 46.6661 24.3507C46.6649 23.0252 46.5338 21.7029 46.2747 20.402C46.1669 19.8592 46.0113 19.3134 45.8542 18.7793C45.4985 17.5714 45.0314 16.3977 44.4587 15.2726C43.3227 13.0397 41.6982 10.954 39.8206 9.2276C39.6774 9.09583 39.5323 8.96607 39.3853 8.8383C39.1383 8.62381 38.8884 8.40221 38.6277 8.20606C38.5149 8.12146 38.3739 8.03013 38.289 7.92457Z" fill="white"/>
<path d="M43.8186 28.1973C43.4285 29.7057 42.9422 31.18 42.1693 32.557C41.8962 33.0444 41.5993 33.5185 41.2905 33.9849C40.8909 34.5934 40.4563 35.1782 39.9887 35.7362C38.6845 37.2834 37.0854 38.6335 35.3597 39.7295C35.2022 39.8297 35.0426 39.927 34.881 40.0215C34.4773 40.2584 34.064 40.48 33.6413 40.6864C32.7947 41.1002 31.9187 41.4511 31.0204 41.7361C29.6879 42.1577 28.1877 42.3845 26.7858 42.5122C26.7858 42.5122 27.2668 42.4064 27.4651 42.3681C29.2847 42.0174 31.0683 41.4832 32.7426 40.7225C34.4073 39.9616 35.9507 38.9599 37.3232 37.7497C38.827 36.4392 40.1087 34.8943 41.1187 33.1747C42.1694 31.3623 42.8898 29.378 43.2463 27.314C43.4486 26.1565 43.5406 24.9826 43.5213 23.8078C43.4983 22.3388 43.3027 20.8776 42.9383 19.4543C42.7508 18.7225 42.5183 18.003 42.2421 17.2998C42.0864 16.9043 41.4934 15.7818 41.5133 15.5971C41.5413 15.3526 42.0442 15.1732 42.2655 15.1786C42.4355 15.1832 42.564 15.5703 42.6203 15.6944C43.328 17.2468 43.8324 18.884 44.1209 20.5653C44.1523 20.7505 44.181 20.936 44.2068 21.1217C44.2597 21.505 44.3005 21.8882 44.3291 22.2714C44.3877 23.0846 44.3975 23.9006 44.3583 24.7149C44.2992 25.8912 44.1183 27.0582 43.8186 28.1973Z" fill="white"/>
</svg>
