<?xml version="1.0" encoding="utf-8"?>
<!-- Generator: Adobe Illustrator 24.1.2, SVG Export Plug-In . SVG Version: 6.00 Build 0)  -->
<svg version="1.1" id="Layer_1" xmlns="http://www.w3.org/2000/svg" xmlns:xlink="http://www.w3.org/1999/xlink" x="0px" y="0px"
	 viewBox="0 0 210.1 239.9" style="enable-background:new 0 0 210.1 239.9;" xml:space="preserve">
<style type="text/css">
	.st0{fill:url(#SVGID_1_);}
	.st1{fill:url(#SVGID_2_);}
	.st2{fill:url(#SVGID_3_);}
	.st3{fill:url(#SVGID_4_);}
	.st4{fill:url(#SVGID_5_);}
	.st5{fill:url(#SVGID_6_);}
	.st6{fill:url(#SVGID_7_);}
	.st7{fill:url(#SVGID_8_);}
	.st8{fill:url(#SVGID_9_);}
	.st9{fill:url(#SVGID_10_);}
	.st10{fill:url(#SVGID_11_);}
	.st11{fill:url(#SVGID_12_);}
	.st12{fill:url(#SVGID_13_);}
	.st13{fill:url(#SVGID_14_);}
	.st14{fill:url(#SVGID_15_);}
	.st15{fill:url(#SVGID_16_);}
	.st16{fill:url(#SVGID_17_);}
	.st17{fill:url(#SVGID_18_);}
	.st18{fill:url(#SVGID_19_);}
	.st19{fill:url(#SVGID_20_);}
	.st20{fill:url(#SVGID_21_);}
	.st21{fill:url(#SVGID_22_);}
	.st22{fill:url(#SVGID_23_);}
	.st23{fill:url(#SVGID_24_);}
	.st24{fill:url(#SVGID_25_);}
	.st25{fill:url(#SVGID_26_);}
	.st26{fill:url(#SVGID_27_);}
	.st27{fill:url(#SVGID_28_);}
	.st28{fill:url(#SVGID_29_);}
</style>
<linearGradient id="SVGID_1_" gradientUnits="userSpaceOnUse" x1="105.056" y1="601.566" x2="105.056" y2="752.3246" gradientTransform="matrix(1 0 0 -1 0 804)">
	<stop  offset="0" style="stop-color:#FF005C"/>
	<stop  offset="1" style="stop-color:#7000FF"/>
</linearGradient>
<path class="st0" d="M0,194.7c0.8-1.2,1.7-2.3,2.4-3.6c22.3-38.1,56.2-68.9,98.8-93.9c32.5-19.1,68.2-33.5,106.1-44.6
	c0.9-0.3,1.8-0.6,2.7-0.9v5.2c-2.1,0.5-4.2,0.9-6.2,1.5C152.5,72.8,106.2,93.9,67.2,124c-28.6,22-51,47.4-66,76.6
	c-0.3,0.6-0.8,1.2-1.2,1.8V194.7z"/>
<linearGradient id="SVGID_2_" gradientUnits="userSpaceOnUse" x1="105.056" y1="621.559" x2="105.056" y2="758.9534" gradientTransform="matrix(1 0 0 -1 0 804)">
	<stop  offset="0" style="stop-color:#FF005C"/>
	<stop  offset="1" style="stop-color:#7000FF"/>
</linearGradient>
<path class="st1" d="M210.1,50.2c-19.1,3.7-37.2,9.3-54.9,15.9c-47.6,17.6-88.5,41.8-121.2,74.2c-12.6,12.4-23.4,25.8-32.2,40
	c-0.5,0.7-1.1,1.5-1.7,2.2v-6.7c0.9-1.1,2-2.2,2.8-3.4c29-42,71.1-73.9,123.3-98.2c25.6-11.9,52.7-21,80.9-28.2c1-0.3,2-0.6,3.1-0.9
	L210.1,50.2z"/>
<linearGradient id="SVGID_3_" gradientUnits="userSpaceOnUse" x1="116.88" y1="556.9624" x2="116.8809" y2="714.8644" gradientTransform="matrix(1 0 0 -1 0 804)">
	<stop  offset="0" style="stop-color:#FF005C"/>
	<stop  offset="1" style="stop-color:#7000FF"/>
</linearGradient>
<path class="st2" d="M210.1,93.8c-54.1,13.3-100.1,36.2-135.9,70.9c-24.9,24.2-40.8,51.6-46.6,82.4h-3.9c2.9-14,7.4-27.6,14.5-40.6
	c13-23.7,31.4-44.5,55.1-62.5c32.8-25,71.5-42.5,114.7-54.2c0.7-0.2,1.4-0.4,2.2-0.6L210.1,93.8z"/>
<linearGradient id="SVGID_4_" gradientUnits="userSpaceOnUse" x1="105.056" y1="681.028" x2="105.056" y2="796.3777" gradientTransform="matrix(1 0 0 -1 0 804)">
	<stop  offset="0" style="stop-color:#FF005C"/>
	<stop  offset="1" style="stop-color:#7000FF"/>
</linearGradient>
<path class="st3" d="M0,118.4c3.1-2.8,6.2-5.5,9.2-8.3c33.5-30.7,73.6-54.8,118.7-74.2c26.3-11.3,53.9-20.5,82.1-28.3v5.1
	c-2,0.4-4,0.7-5.9,1.3c-46.5,12.3-89.9,29.4-129.4,52.2c-27.6,15.9-52.3,34.6-73.4,55.7c-0.4,0.4-0.9,0.7-1.4,1V118.4z"/>
<linearGradient id="SVGID_5_" gradientUnits="userSpaceOnUse" x1="105.056" y1="694.871" x2="105.056" y2="802.53" gradientTransform="matrix(1 0 0 -1 0 804)">
	<stop  offset="0" style="stop-color:#FF005C"/>
	<stop  offset="1" style="stop-color:#7000FF"/>
</linearGradient>
<path class="st4" d="M210.1,6.1c-12.5,3.2-25.1,5.9-37.4,9.5C115.4,32.3,64.6,56.9,21.6,91c-6.7,5.3-13,11.1-19.4,16.7
	c-0.7,0.5-1.4,1-2.1,1.5V105C8.3,98.1,16.4,91,25,84.3c29.9-23.1,64.2-41.7,101.4-56.9C152,17.1,178.7,8.8,206.3,2.2
	c1.2-0.3,2.5-0.5,3.8-0.7V6.1z"/>
<linearGradient id="SVGID_6_" gradientUnits="userSpaceOnUse" x1="121.465" y1="556.963" x2="121.465" y2="707.6763" gradientTransform="matrix(1 0 0 -1 0 804)">
	<stop  offset="0" style="stop-color:#FF005C"/>
	<stop  offset="1" style="stop-color:#7000FF"/>
</linearGradient>
<path class="st5" d="M32.9,247c2.3-7.3,4.1-14.7,7-21.8c12.3-29.8,34.1-54.9,62.7-76.4c29.9-22.5,64.7-38.8,102.9-51
	c1.5-0.5,3-1,4.5-1.5v4.6c-14.3,5-29.1,9.5-42.9,15.2c-30.5,12.6-57.5,28.9-79.9,49.5c-25.6,23.5-43.2,50-50.7,80.4
	c-0.1,0.3-0.2,0.7-0.4,1H32.9z"/>
<linearGradient id="SVGID_7_" gradientUnits="userSpaceOnUse" x1="105.0365" y1="564.12" x2="105.0365" y2="737.934" gradientTransform="matrix(1 0 0 -1 0 804)">
	<stop  offset="0" style="stop-color:#FF005C"/>
	<stop  offset="1" style="stop-color:#7000FF"/>
</linearGradient>
<path class="st6" d="M0,227c1.6-4.1,3.2-8.2,4.9-12.2c13-30.5,34.2-57.1,62.6-80.2c39.4-32.1,87.1-53.9,140.6-68.3
	c0.6-0.1,1.3-0.2,1.9-0.3v2.6c-40.5,10.6-77.9,25.7-111.1,46.8c-44.6,28.3-77,63.1-93.2,106.6c-1.8,4.8-3,9.8-4.6,14.7
	c-0.3,1.1-0.8,2.1-1.1,3.1L0,227z"/>
<linearGradient id="SVGID_8_" gradientUnits="userSpaceOnUse" x1="110.307" y1="556.963" x2="110.307" y2="727.1678" gradientTransform="matrix(1 0 0 -1 0 804)">
	<stop  offset="0" style="stop-color:#FF005C"/>
	<stop  offset="1" style="stop-color:#7000FF"/>
</linearGradient>
<path class="st7" d="M210.1,79.9c-8.7,2.6-17.5,4.9-26,7.7c-42,14.2-79.1,33.8-109.7,60.6c-31.9,27.8-52.8,59.9-60.1,97
	c-0.1,0.6-0.3,1.2-0.4,1.8h-3.3c1.6-11.2,5.2-22,9.9-32.6c16.3-36.4,44.5-66.3,82.2-90.9c31.2-20.4,66.4-35.2,104.7-45.9
	c0.9-0.3,1.8-0.6,2.7-0.8V79.9z"/>
<linearGradient id="SVGID_9_" gradientUnits="userSpaceOnUse" x1="105.0695" y1="643.604" x2="105.0695" y2="771.257" gradientTransform="matrix(1 0 0 -1 0 804)">
	<stop  offset="0" style="stop-color:#FF005C"/>
	<stop  offset="1" style="stop-color:#7000FF"/>
</linearGradient>
<path class="st8" d="M0,155.3c3.3-3.7,6.6-7.4,9.8-11.1c22.9-26,51.2-47.7,83.9-66c34.8-19.5,72.7-34,113.2-44.5
	c1-0.3,2.1-0.6,3.1-0.9v3.1c-10,2.8-20.1,5.3-29.9,8.3c-41.4,13-79.3,30.5-112.9,53.5C41.2,115.5,19,135.8,1.2,159.2
	c-0.4,0.4-0.8,0.8-1.2,1.2V155.3z"/>
<linearGradient id="SVGID_10_" gradientUnits="userSpaceOnUse" x1="105.0395" y1="664.121" x2="105.0395" y2="782.023" gradientTransform="matrix(1 0 0 -1 0 804)">
	<stop  offset="0" style="stop-color:#FF005C"/>
	<stop  offset="1" style="stop-color:#7000FF"/>
</linearGradient>
<path class="st9" d="M0,135.8c6-5.9,11.9-12,18.2-17.8c25.4-23.5,55.3-43,88.6-59.2c31.4-15.3,65.2-27.4,100.4-36.2
	c0.9-0.2,1.9-0.4,2.8-0.6v2.6c-25.7,6.4-50.5,14.3-74.4,24.1C83.7,70,39.2,98.3,4.4,135.5C3,137,1.5,138.4,0,139.9L0,135.8z"/>
<linearGradient id="SVGID_11_" gradientUnits="userSpaceOnUse" x1="142.4685" y1="556.963" x2="142.4685" y2="670.262" gradientTransform="matrix(1 0 0 -1 0 804)">
	<stop  offset="0" style="stop-color:#FF005C"/>
	<stop  offset="1" style="stop-color:#7000FF"/>
</linearGradient>
<path class="st10" d="M210.1,137.8c-18,4.6-35.1,11.2-50.7,19.5c-30.2,15.8-53.9,36-69.2,62c-5.2,8.9-9.3,18.1-11.4,27.7h-3.9
	c6.2-24.9,21.3-46.3,42.6-65.2c24.4-21.5,54.4-36.9,88.5-47.2c1.3-0.4,2.7-0.6,4.1-0.9V137.8z"/>
<linearGradient id="SVGID_12_" gradientUnits="userSpaceOnUse" x1="128.3565" y1="556.963" x2="128.3565" y2="693.855" gradientTransform="matrix(1 0 0 -1 0 804)">
	<stop  offset="0" style="stop-color:#FF005C"/>
	<stop  offset="1" style="stop-color:#7000FF"/>
</linearGradient>
<path class="st11" d="M210.1,112.7c-22.5,6.6-44,14.8-63.8,25.4c-34.9,18.6-62.7,42.1-81,72.1c-7.2,11.7-12.4,24.1-15.3,36.9h-3.3
	c1.6-5.5,2.8-11,4.9-16.4c11.7-29.5,33-54.3,61.9-75.2c27.6-20.1,59.6-34.5,94.8-44.8c0.6-0.2,1.3-0.3,1.9-0.5V112.7z"/>
<linearGradient id="SVGID_13_" gradientUnits="userSpaceOnUse" x1="147.063" y1="556.963" x2="147.063" y2="663.075" gradientTransform="matrix(1 0 0 -1 0 804)">
	<stop  offset="0" style="stop-color:#FF005C"/>
	<stop  offset="1" style="stop-color:#7000FF"/>
</linearGradient>
<path class="st12" d="M84.1,247c6.3-18.5,17.3-35.9,32.5-51c21.3-21.1,47.8-37.1,78.3-49.2c5.1-2,10.2-3.9,15.3-5.9v4.6
	c-6.8,2.4-13.8,4.7-20.5,7.4c-34.2,14-62.6,33.1-82.9,59.1c-8.5,10.9-15.1,22.5-18.8,35H84.1z"/>
<linearGradient id="SVGID_14_" gradientUnits="userSpaceOnUse" x1="135.5765" y1="556.953" x2="135.5765" y2="682.566" gradientTransform="matrix(1 0 0 -1 0 804)">
	<stop  offset="0" style="stop-color:#FF005C"/>
	<stop  offset="1" style="stop-color:#7000FF"/>
</linearGradient>
<path class="st13" d="M210.1,124c-39.2,11.7-73.5,29-101.2,53.9c-21.7,19.5-36.7,41.7-43.5,67.2c-0.2,0.7-0.2,1.3-0.3,2h-3.9
	c3.8-9.5,6.8-19.3,11.7-28.5c13.3-25.2,34.6-46,61.4-63.3c22.2-14.4,47-25.2,73.7-33.4c0.7-0.2,1.5-0.3,2.2-0.4V124z"/>
<linearGradient id="SVGID_15_" gradientUnits="userSpaceOnUse" x1="87.3345" y1="710.763" x2="87.3345" y2="803.0424" gradientTransform="matrix(1 0 0 -1 0 804)">
	<stop  offset="0" style="stop-color:#FF005C"/>
	<stop  offset="1" style="stop-color:#7000FF"/>
</linearGradient>
<path class="st14" d="M0,89.6c6.5-5.1,12.8-10.3,19.4-15.3c31.5-23.7,66.9-43.1,105.9-58.5c12.5-5,25.3-9.2,38-13.8
	c0.7-0.3,1.4-0.7,2.1-1.1h9.2c-5.1,1.7-10.2,3.5-15.3,5.2C109,22.9,63.3,45.3,23.5,74.7c-7.4,5.5-14.2,11.3-21.4,17
	c-0.7,0.5-1.4,1-2.1,1.5V89.6z"/>
<linearGradient id="SVGID_16_" gradientUnits="userSpaceOnUse" x1="153.9545" y1="556.963" x2="153.9545" y2="649.243" gradientTransform="matrix(1 0 0 -1 0 804)">
	<stop  offset="0" style="stop-color:#FF005C"/>
	<stop  offset="1" style="stop-color:#7000FF"/>
</linearGradient>
<path class="st15" d="M210.1,157.3c-36.9,12.1-67.6,30.1-89.6,56.6c-7.9,9.5-13.9,19.8-18,30.6c-0.3,0.8-0.4,1.7-0.7,2.5h-3.9
	c17.3-44.8,56.8-73.3,110.1-91.8c0.7-0.2,1.4-0.4,2.2-0.5V157.3z"/>
<linearGradient id="SVGID_17_" gradientUnits="userSpaceOnUse" x1="70.2695" y1="726.6553" x2="70.2695" y2="803.0422" gradientTransform="matrix(1 0 0 -1 0 804)">
	<stop  offset="0" style="stop-color:#FF005C"/>
	<stop  offset="1" style="stop-color:#7000FF"/>
</linearGradient>
<path class="st16" d="M0,74.3C14.7,62.8,30.3,52,46.8,42.2c25.9-15.4,53.6-28.7,82.8-39.7c1-0.4,2-0.9,3-1.5h7.9
	c-9.5,3.8-19.2,7.4-28.6,11.4C71.4,29.3,34.6,50.3,2.3,76c-0.7,0.5-1.5,0.9-2.2,1.4V74.3z"/>
<linearGradient id="SVGID_18_" gradientUnits="userSpaceOnUse" x1="54.845" y1="741.01" x2="54.845" y2="803.0424" gradientTransform="matrix(1 0 0 -1 0 804)">
	<stop  offset="0" style="stop-color:#FF005C"/>
	<stop  offset="1" style="stop-color:#7000FF"/>
</linearGradient>
<path class="st17" d="M0,59.4c18-13.4,36.9-26,57.5-36.8c13.3-7,27-13.5,40.6-20.3c0.8-0.4,1.6-0.9,2.4-1.3l9.2,0
	c-8,3.7-16,7.2-24,11C55.5,26.1,27.5,42.8,2.1,61.9C1.5,62.3,0.8,62.7,0,63V59.4z"/>
<linearGradient id="SVGID_19_" gradientUnits="userSpaceOnUse" x1="168.3945" y1="556.963" x2="168.3945" y2="626.173" gradientTransform="matrix(1 0 0 -1 0 804)">
	<stop  offset="0" style="stop-color:#FF005C"/>
	<stop  offset="1" style="stop-color:#7000FF"/>
</linearGradient>
<path class="st18" d="M210.1,181.9c-16.9,5.8-32.4,13.4-45.7,23.4c-15.5,11.8-27.4,25.4-33.7,41.7h-3.9
	c12.1-28.7,36.5-49.1,69.7-63.7c4.5-2,9.1-3.7,13.7-5.5V181.9z"/>
<linearGradient id="SVGID_20_" gradientUnits="userSpaceOnUse" x1="161.503" y1="556.974" x2="161.503" y2="637.965" gradientTransform="matrix(1 0 0 -1 0 804)">
	<stop  offset="0" style="stop-color:#FF005C"/>
	<stop  offset="1" style="stop-color:#7000FF"/>
</linearGradient>
<path class="st19" d="M210.1,168.6c-16.9,6.2-32.8,13.6-46.9,23.2c-20.9,14.2-36.5,31.1-45.2,51.8c-0.5,1.1-0.7,2.3-1.1,3.4h-3.9
	c4.2-10.8,10.4-21,18.3-30.5c17.2-20.4,40.3-35.4,67.9-46.5c3.6-1.4,7.3-2.7,11-4V168.6z"/>
<linearGradient id="SVGID_21_" gradientUnits="userSpaceOnUse" x1="44.015" y1="752.8014" x2="44.015" y2="803.0425" gradientTransform="matrix(1 0 0 -1 0 804)">
	<stop  offset="0" style="stop-color:#FF005C"/>
	<stop  offset="1" style="stop-color:#7000FF"/>
</linearGradient>
<path class="st20" d="M88,1c-0.6,0.4-1.3,0.9-2,1.2C55.7,15.8,27.4,32,1.6,50.4c-0.5,0.3-1,0.6-1.6,0.8v-4.1
	c2.8-1.8,5.7-3.6,8.5-5.5C29.8,27,52.7,14.2,76.8,2.6c0.9-0.5,1.8-1.1,2.7-1.7H88z"/>
<linearGradient id="SVGID_22_" gradientUnits="userSpaceOnUse" x1="173.6455" y1="556.963" x2="173.6455" y2="617.458" gradientTransform="matrix(1 0 0 -1 0 804)">
	<stop  offset="0" style="stop-color:#FF005C"/>
	<stop  offset="1" style="stop-color:#7000FF"/>
</linearGradient>
<path class="st21" d="M137.2,247c6.4-13.8,17.1-25.4,30.1-35.9c12.5-10.1,27.1-17.9,42.8-24.6v4.1c-29.3,11.8-52.4,28.4-66.7,51.9
	c-0.9,1.4-1.5,3-2.2,4.5H137.2z"/>
<linearGradient id="SVGID_23_" gradientUnits="userSpaceOnUse" x1="180.8655" y1="556.963" x2="180.8655" y2="604.128" gradientTransform="matrix(1 0 0 -1 0 804)">
	<stop  offset="0" style="stop-color:#FF005C"/>
	<stop  offset="1" style="stop-color:#7000FF"/>
</linearGradient>
<path class="st22" d="M210.1,202.9c-1.1,0.3-2.2,0.7-3.2,1.1c-22.9,10.2-40.7,24.1-51.9,43h-3.3c4.6-9,11.6-16.8,19.7-23.9
	c11-9.7,24.1-17.3,38.7-23.2V202.9z"/>
<linearGradient id="SVGID_24_" gradientUnits="userSpaceOnUse" x1="30.2315" y1="767.1558" x2="30.2315" y2="803.0422" gradientTransform="matrix(1 0 0 -1 0 804)">
	<stop  offset="0" style="stop-color:#FF005C"/>
	<stop  offset="1" style="stop-color:#7000FF"/>
</linearGradient>
<path class="st23" d="M0,33.8C17.1,22.3,34.8,11.4,53.6,1.7C54,1.5,54.3,1.2,54.5,1h5.9c-10,5.5-20.1,10.9-29.8,16.7
	c-9.7,5.8-19.2,12.2-28.7,18.2c-0.6,0.3-1.2,0.7-1.9,1V33.8z"/>
<linearGradient id="SVGID_25_" gradientUnits="userSpaceOnUse" x1="188.7415" y1="556.963" x2="188.7415" y2="592.337" gradientTransform="matrix(1 0 0 -1 0 804)">
	<stop  offset="0" style="stop-color:#FF005C"/>
	<stop  offset="1" style="stop-color:#7000FF"/>
</linearGradient>
<path class="st24" d="M210.1,214.7c-16.7,8.1-30.3,18.5-39.4,32.3h-3.3c7.6-12.5,19.2-22.2,33.2-30.3c3.1-1.8,6.3-3.4,9.4-5V214.7z"
	/>
<linearGradient id="SVGID_26_" gradientUnits="userSpaceOnUse" x1="195.9615" y1="556.963" x2="195.9615" y2="579.521" gradientTransform="matrix(1 0 0 -1 0 804)">
	<stop  offset="0" style="stop-color:#FF005C"/>
	<stop  offset="1" style="stop-color:#7000FF"/>
</linearGradient>
<path class="st25" d="M210.1,228.1c-8.7,4.4-16.3,10.1-22.2,16.8c-0.5,0.7-1,1.4-1.4,2.2h-4.6c6.3-8.2,14.6-15.3,24.6-20.8
	c1.1-0.6,2.4-1.2,3.6-1.7V228.1z"/>
<linearGradient id="SVGID_27_" gradientUnits="userSpaceOnUse" x1="18.089" y1="780.9977" x2="18.089" y2="803.0422" gradientTransform="matrix(1 0 0 -1 0 804)">
	<stop  offset="0" style="stop-color:#FF005C"/>
	<stop  offset="1" style="stop-color:#7000FF"/>
</linearGradient>
<path class="st26" d="M0,19.9c9.9-6,19.8-12,29.8-18c0.4-0.3,0.8-0.6,1.1-0.9l5.3,0c-4.9,2.9-9.9,5.8-14.8,8.8
	C14.2,14.1,7.1,18.6,0,23V19.9z"/>
<linearGradient id="SVGID_28_" gradientUnits="userSpaceOnUse" x1="202.525" y1="556.963" x2="202.525" y2="569.267" gradientTransform="matrix(1 0 0 -1 0 804)">
	<stop  offset="0" style="stop-color:#FF005C"/>
	<stop  offset="1" style="stop-color:#7000FF"/>
</linearGradient>
<path class="st27" d="M195,247l15.1-12.3v4.1l-10.5,8.2H195z"/>
<linearGradient id="SVGID_29_" gradientUnits="userSpaceOnUse" x1="6.931" y1="794.327" x2="6.931" y2="803.0423" gradientTransform="matrix(1 0 0 -1 0 804)">
	<stop  offset="0" style="stop-color:#FF005C"/>
	<stop  offset="1" style="stop-color:#7000FF"/>
</linearGradient>
<path class="st28" d="M13.8,1L0,9.7V5.6L7.9,1H13.8z"/>
</svg>
