<?xml version="1.0" encoding="utf-8"?>
<!-- Generator: Adobe Illustrator 24.1.2, SVG Export Plug-In . SVG Version: 6.00 Build 0)  -->
<svg version="1.1" id="Layer_1" xmlns="http://www.w3.org/2000/svg" xmlns:xlink="http://www.w3.org/1999/xlink" x="0px" y="0px"
	 viewBox="0 0 345 348" style="enable-background:new 0 0 345 348;" xml:space="preserve">
<style type="text/css">
	.st0{fill:none;stroke:#49FFBE;stroke-width:5;stroke-linecap:round;stroke-linejoin:round;stroke-miterlimit:10;}
</style>
<path class="st0" d="M172.7,315.9l70.6-33.1l-0.8-83.5l-70.6,32.4l-71.2-31l0.8,83.5L172.7,315.9z"/>
<path class="st0" d="M115.3,224.8l40,17.8l0.4,46.1l-40-15.9"/>
<path class="st0" d="M228.4,225.3l-39.7,18.6l0.4,46.1l39.7-16.7"/>
<path class="st0" d="M100.7,200.7l22.2-11.5"/>
<path class="st0" d="M242.5,199.3l-22.7-11.1"/>
<path class="st0" d="M55.1,94.8L45.8,82"/>
<path class="st0" d="M132.4,201.5l-70.8-97.8"/>
<path class="st0" d="M277.7,104.5L211,200.7"/>
<path class="st0" d="M295.8,78.3L287,91.1"/>
<path class="st0" d="M127.8,94.5l0.5,48.1l41.9,23.6l41.4-24.4l-0.5-48.1l-41.9-23.6L127.8,94.5z"/>
<path class="st0" d="M169.9,137.6c10.8-0.1,19.4-8.9,19.3-19.7c-0.1-10.8-8.9-19.4-19.7-19.3c-10.8,0.1-19.4,8.9-19.3,19.7
	C150.3,129.1,159.1,137.7,169.9,137.6z"/>
<path class="st0" d="M284.4,299.7l0.1,9.4"/>
<path class="st0" d="M284.1,276l0.1,9.9"/>
<path class="st0" d="M291.5,292.5l9.4-0.1"/>
<path class="st0" d="M267.7,292.7l9.9-0.1"/>
<path class="st0" d="M59.2,188.6l0.1,9.4"/>
<path class="st0" d="M58.9,164.8l0.1,9.9"/>
<path class="st0" d="M66.3,181.3l9.4-0.1"/>
<path class="st0" d="M42.5,181.5l9.9-0.1"/>
<path class="st0" d="M235,75.3l0.1,9.4"/>
<path class="st0" d="M234.8,51.6l0.1,9.9"/>
<path class="st0" d="M242.1,68.1l9.4-0.1"/>
<path class="st0" d="M218.4,68.3l9.9-0.1"/>
</svg>
