<?xml version="1.0" encoding="utf-8"?>
<!-- Generator: Adobe Illustrator 24.1.2, SVG Export Plug-In . SVG Version: 6.00 Build 0)  -->
<svg version="1.1" id="Layer_1" xmlns="http://www.w3.org/2000/svg" xmlns:xlink="http://www.w3.org/1999/xlink" x="0px" y="0px"
	 viewBox="0 0 354 342" style="enable-background:new 0 0 354 342;" xml:space="preserve">
<style type="text/css">
	.st0{fill:none;stroke:#FF2876;stroke-width:5;stroke-linecap:round;stroke-linejoin:round;stroke-miterlimit:10;}
	.st1{fill:none;stroke:#FF2876;stroke-width:5;stroke-linecap:round;stroke-miterlimit:10;}
	.st2{fill:none;stroke:#FF2876;stroke-width:5;stroke-miterlimit:10;}
</style>
<path class="st0" d="M249,145.5c39.1,7.2,65.2,20.1,65.2,34.8c-0.1,22.4-61.3,40.4-136.8,40.2c-75.5-0.2-136.6-18.5-136.6-40.9
	c0-13.2,21.4-24.9,54.3-32.2"/>
<path class="st0" d="M177.8,53.7l-60.3,109.9l59.9,29.8l58.4-28.6L177.8,53.7z"/>
<path class="st0" d="M177.6,123.6l-0.2,69.9"/>
<path class="st0" d="M209.3,219.4l11.8-25.8"/>
<path class="st0" d="M150,233.7l26.3,57.5l26.8-58.5"/>
<path class="st0" d="M131.6,193.3l11.8,25.9"/>
<path class="st0" d="M93.1,66.4l0,10.2"/>
<path class="st0" d="M93.1,43l0,10.5"/>
<path class="st0" d="M99.7,59.8l10.2,0"/>
<path class="st0" d="M76.3,59.8l10.5,0"/>
<path class="st1" d="M251.1,102.9l0,10.2"/>
<path class="st1" d="M251.1,79.6l0,10.5"/>
<path class="st1" d="M257.7,96.4l10.2,0"/>
<path class="st1" d="M234.3,96.3l10.5,0"/>
<path class="st0" d="M103.2,275.1l0,10.2"/>
<path class="st0" d="M103.3,251.7l0,10.5"/>
<path class="st0" d="M86.4,268.5l10.5,0"/>
<path class="st2" d="M109.8,112.8c2.8,0,5.1-2.3,5.1-5.1c0-2.8-2.3-5.1-5.1-5.1c-2.8,0-5.1,2.3-5.1,5.1
	C104.6,110.5,106.9,112.8,109.8,112.8z"/>
<path class="st2" d="M239.1,257.2c2.8,0,5.1-2.3,5.1-5.1c0-2.8-2.3-5.1-5.1-5.1c-2.8,0-5.1,2.3-5.1,5.1
	C234,254.9,236.3,257.2,239.1,257.2z"/>
</svg>
