<?xml version="1.0" encoding="utf-8"?>
<!-- Generator: Adobe Illustrator 24.1.2, SVG Export Plug-In . SVG Version: 6.00 Build 0)  -->
<svg version="1.1" id="Layer_1" xmlns="http://www.w3.org/2000/svg" xmlns:xlink="http://www.w3.org/1999/xlink" x="0px" y="0px"
	 viewBox="0 0 288 280" style="enable-background:new 0 0 288 280;" xml:space="preserve">
<style type="text/css">
	.st0{fill:none;stroke:#D96DFF;stroke-width:5;stroke-linecap:round;stroke-linejoin:round;stroke-miterlimit:10;}
	.st1{fill:none;stroke:#D96DFF;stroke-width:5;stroke-linecap:round;stroke-miterlimit:10;}
	.st2{fill:none;stroke:#D96DFF;stroke-width:5;stroke-miterlimit:10;}
</style>
<path class="st0" d="M253.2,208.8l-0.1,7.8"/>
<path class="st0" d="M253.5,191l-0.1,8"/>
<path class="st0" d="M258.3,203.8l7.8,0.1"/>
<path class="st0" d="M240.5,203.5l8,0.1"/>
<path class="st1" d="M44.2,42.4l-0.1,7.8"/>
<path class="st1" d="M44.6,24.6l-0.1,8"/>
<path class="st1" d="M49.3,37.5l7.8,0.1"/>
<path class="st1" d="M31.5,37.2l8,0.1"/>
<path class="st0" d="M243.6,70.4l7.8,0.1"/>
<path class="st0" d="M225.8,70.1l8,0.1"/>
<path class="st0" d="M238.7,65.3l0.1-7.8"/>
<path class="st0" d="M238.4,83.1l0.1-8"/>
<path class="st2" d="M231.2,255.5c2.2,0,3.9-1.7,4-3.8s-1.7-3.9-3.8-4c-2.2,0-3.9,1.7-4,3.8C227.3,253.7,229,255.4,231.2,255.5z"/>
<path class="st2" d="M58.3,245c0-2.2-1.7-3.9-3.8-4c-2.2,0-3.9,1.7-4,3.8c0,2.2,1.7,3.9,3.8,4C56.5,248.9,58.2,247.2,58.3,245z"/>
<path class="st2" d="M204.7,32.5c0-2.2-1.7-3.9-3.8-4c-2.2,0-3.9,1.7-4,3.8s1.7,3.9,3.8,4S204.7,34.6,204.7,32.5z"/>
<path class="st0" d="M126,192.3c0,0-32.6-4.1-44.4,20.2c0,0-10.5-30.6,31.9-69.1c0,0,17.8-11.9,7.4-27.5c-1.4-1.7-3.1-3.2-5.1-4.1
	c-2-1-3.2-1.3-5.4-1.3"/>
<path class="st0" d="M198.1,125c0,0-10.1-62.8-94.6-60.9L78.9,48.7l5,22.3c0,0-15.7,3.8-15.5,24.7l-11.3,42.9
	c0,0,16.9,10.1,18.3-0.2c0,0,3.9-10.3,10.9-10.4c6.9-0.1,25.2-2.8,24.6-28.4"/>
<path class="st0" d="M71.2,81.9L22.7,71.6l43.8,25.9"/>
<path class="st0" d="M178,127.1l-40,26l0.4,43.9l40.5,26.7l38.5-25.3l-0.5-46.8L178,127.1z"/>
<path class="st0" d="M101.7,50.6c0,0,100.2-17.1,117.4,87.3"/>
<path class="st2" d="M86.7,97.4c2.2-3,2.9-6.2,1.6-7.2C87,89.3,84.2,91,82,94c-2.2,3-2.9,6.2-1.6,7.2
	C81.6,102.1,84.5,100.4,86.7,97.4z"/>
<path class="st0" d="M177.9,193.8c10.2-0.1,18.4-8.5,18.3-18.7c-0.1-10.2-8.5-18.4-18.7-18.3c-10.2,0.1-18.4,8.5-18.3,18.7
	C159.4,185.7,167.7,193.9,177.9,193.8z"/>
</svg>
